<svg width="177" height="54" viewBox="0 0 177 54" fill="none" xmlns="http://www.w3.org/2000/svg">
<path d="M164.061 52.7517H10.1562C6.77183 52.7517 4 50.0455 4 46.7412V10.6779C4 7.37356 6.77183 4.66731 10.1562 4.66731H164.061C167.445 4.66731 170.217 7.37356 170.217 10.6779V46.7412C170.217 50.0455 167.445 52.7517 164.061 52.7517Z" fill="black"/>
<path d="M64.4776 16.756C64.4776 17.7957 64.1587 18.6285 63.5306 19.2496C62.8084 19.9858 61.8678 20.3563 60.7151 20.3563C59.6135 20.3563 58.6728 19.9796 57.9012 19.2371C57.128 18.4837 56.7422 17.5591 56.7422 16.4524C56.7422 15.3457 57.128 14.4211 57.9012 13.674C58.6728 12.9253 59.6135 12.5486 60.7151 12.5486C61.2635 12.5486 61.7865 12.6591 62.2855 12.8646C62.7829 13.0716 63.1878 13.3518 63.4812 13.6973L62.8148 14.3542C62.303 13.7643 61.6063 13.4732 60.7151 13.4732C59.9116 13.4732 59.2149 13.7471 58.6234 14.2997C58.0383 14.8539 57.745 15.5714 57.745 16.4524C57.745 17.3334 58.0383 18.0572 58.6234 18.6114C59.2149 19.1577 59.9116 19.4379 60.7151 19.4379C61.568 19.4379 62.2855 19.1577 62.8514 18.6051C63.2245 18.2394 63.4365 17.735 63.4923 17.0906H60.7151V16.1909H64.4202C64.4648 16.3855 64.4776 16.5738 64.4776 16.756Z" fill="white"/>
<path d="M70.3542 13.6366H66.8739V16.0026H70.0115V16.9023H66.8739V19.2682H70.3542V20.185H65.8887V12.7198H70.3542V13.6366Z" fill="white"/>
<path d="M74.5028 20.185H73.5175V13.6366H71.3828V12.7198H76.6391V13.6366H74.5028V20.185Z" fill="white"/>
<path d="M80.4434 20.185V12.7198H81.427V20.185H80.4434Z" fill="white"/>
<path d="M85.7879 20.185H84.8107V13.6366H82.668V12.7198H87.9306V13.6366H85.7879V20.185Z" fill="white"/>
<path d="M97.8816 19.2247C97.1275 19.9796 96.1932 20.3563 95.0788 20.3563C93.9581 20.3563 93.0238 19.9796 92.2697 19.2247C91.5172 18.4713 91.1426 17.5467 91.1426 16.4524C91.1426 15.3582 91.5172 14.4336 92.2697 13.6802C93.0238 12.9253 93.9581 12.5486 95.0788 12.5486C96.1868 12.5486 97.1211 12.9253 97.8752 13.6864C98.6341 14.446 99.0087 15.3644 99.0087 16.4524C99.0087 17.5467 98.6341 18.4713 97.8816 19.2247ZM92.9983 18.5989C93.5659 19.1577 94.2562 19.4379 95.0788 19.4379C95.8951 19.4379 96.5918 19.1577 97.153 18.5989C97.7189 18.0401 98.0059 17.3225 98.0059 16.4524C98.0059 15.5823 97.7189 14.8648 97.153 14.3059C96.5918 13.7471 95.8951 13.467 95.0788 13.467C94.2562 13.467 93.5659 13.7471 92.9983 14.3059C92.4323 14.8648 92.1454 15.5823 92.1454 16.4524C92.1454 17.3225 92.4323 18.0401 92.9983 18.5989Z" fill="white"/>
<path d="M100.391 20.185V12.7198H101.586L105.304 18.5257H105.347L105.304 17.0906V12.7198H106.288V20.185H105.261L101.368 14.0927H101.325L101.368 15.534V20.185H100.391Z" fill="white"/>
<path d="M90.9011 31.0872C87.9055 31.0872 85.4583 33.313 85.4583 36.3841C85.4583 39.4303 87.9055 41.6795 90.9011 41.6795C93.9031 41.6795 96.3503 39.4303 96.3503 36.3841C96.3503 33.313 93.9031 31.0872 90.9011 31.0872ZM90.9011 39.5937C89.2574 39.5937 87.8433 38.2691 87.8433 36.3841C87.8433 34.4742 89.2574 33.173 90.9011 33.173C92.5448 33.173 93.9653 34.4742 93.9653 36.3841C93.9653 38.2691 92.5448 39.5937 90.9011 39.5937ZM79.0254 31.0872C76.0234 31.0872 73.5826 33.313 73.5826 36.3841C73.5826 39.4303 76.0234 41.6795 79.0254 41.6795C82.0258 41.6795 84.4683 39.4303 84.4683 36.3841C84.4683 33.313 82.0258 31.0872 79.0254 31.0872ZM79.0254 39.5937C77.3801 39.5937 75.9612 38.2691 75.9612 36.3841C75.9612 34.4742 77.3801 33.173 79.0254 33.173C80.6691 33.173 82.0832 34.4742 82.0832 36.3841C82.0832 38.2691 80.6691 39.5937 79.0254 39.5937ZM64.8938 32.7107V34.9614H70.3988C70.2378 36.2191 69.8074 37.1437 69.1473 37.7881C68.3438 38.5664 67.0923 39.4303 64.8938 39.4303C61.506 39.4303 58.8531 36.7608 58.8531 33.4531C58.8531 30.1455 61.506 27.476 64.8938 27.476C66.7256 27.476 68.0584 28.1749 69.0421 29.0808L70.6667 27.4947C69.2908 26.2121 67.4606 25.2268 64.8938 25.2268C60.2481 25.2268 56.3438 28.9173 56.3438 33.4531C56.3438 37.9889 60.2481 41.6795 64.8938 41.6795C67.4048 41.6795 69.2908 40.8763 70.7735 39.3696C72.2928 37.8862 72.7663 35.8004 72.7663 34.1162C72.7663 33.5932 72.7217 33.1123 72.642 32.7107H64.8938ZM122.68 34.4556C122.232 33.271 120.849 31.0872 118.034 31.0872C115.244 31.0872 112.921 33.2337 112.921 36.3841C112.921 39.3509 115.22 41.6795 118.302 41.6795C120.794 41.6795 122.232 40.1961 122.823 39.3322L120.974 38.129C120.357 39.01 119.517 39.5937 118.302 39.5937C117.095 39.5937 116.229 39.0536 115.674 37.9889L122.93 35.0579L122.68 34.4556ZM115.282 36.2191C115.22 34.1769 116.907 33.1309 118.115 33.1309C119.062 33.1309 119.866 33.5932 120.134 34.2548L115.282 36.2191ZM109.385 41.3573H111.77V25.7918H109.385V41.3573ZM105.479 32.267H105.399C104.864 31.6475 103.842 31.0872 102.547 31.0872C99.8306 31.0872 97.3468 33.4158 97.3468 36.4012C97.3468 39.3696 99.8306 41.6795 102.547 41.6795C103.842 41.6795 104.864 41.1145 105.399 40.4763H105.479V41.2359C105.479 43.261 104.371 44.349 102.584 44.349C101.127 44.349 100.223 43.3217 99.8498 42.4578L97.7756 43.303C98.3735 44.707 99.9566 46.4348 102.584 46.4348C105.38 46.4348 107.74 44.8284 107.74 40.9199V31.4094H105.479V32.267ZM102.751 39.5937C101.108 39.5937 99.7318 38.2504 99.7318 36.4012C99.7318 34.5349 101.108 33.173 102.751 33.173C104.371 33.173 105.648 34.5349 105.648 36.4012C105.648 38.2504 104.371 39.5937 102.751 39.5937ZM133.846 25.7918H128.142V41.3573H130.52V35.4595H133.846C136.488 35.4595 139.078 33.5932 139.078 30.6249C139.078 27.6581 136.481 25.7918 133.846 25.7918ZM133.908 33.2944H130.52V27.957H133.908C135.684 27.957 136.698 29.3968 136.698 30.6249C136.698 31.8297 135.684 33.2944 133.908 33.2944ZM148.612 31.0576C146.893 31.0576 145.106 31.7985 144.371 33.4407L146.482 34.3046C146.937 33.4407 147.772 33.1605 148.655 33.1605C149.889 33.1605 151.141 33.8843 151.16 35.1622V35.3257C150.729 35.0828 149.808 34.7233 148.674 34.7233C146.401 34.7233 144.084 35.9452 144.084 38.2255C144.084 40.3113 145.946 41.6546 148.04 41.6546C149.64 41.6546 150.524 40.9495 151.078 40.1292H151.16V41.3324H153.457V35.3615C153.457 32.6017 151.346 31.0576 148.612 31.0576ZM148.325 39.5875C147.547 39.5875 146.463 39.2108 146.463 38.2691C146.463 37.0643 147.815 36.602 148.985 36.602C150.033 36.602 150.524 36.8277 151.16 37.125C150.973 38.5664 149.703 39.5875 148.325 39.5875ZM161.827 31.3985L159.093 38.1461H159.012L156.185 31.3985H153.62L157.867 40.8281L155.444 46.0752H157.929L164.473 31.3985H161.827ZM140.386 41.3573H142.771V25.7918H140.386V41.3573Z" fill="white"/>
<path d="M17.3083 13.3876C16.9336 13.7705 16.7168 14.3666 16.7168 15.1387V42.6772C16.7168 43.4493 16.9336 44.0454 17.3083 44.4283L17.4007 44.5124L33.2063 29.087V28.7227L17.4007 13.2973L17.3083 13.3876Z" fill="url(#paint0_linear_1534_14569)"/>
<path d="M38.4697 34.2314L33.207 29.0869V28.7227L38.4761 23.5783L38.5941 23.6452L44.834 27.1117C46.6148 28.0954 46.6148 29.7142 44.834 30.7042L38.5941 34.1644L38.4697 34.2314Z" fill="url(#paint1_linear_1534_14569)"/>
<path d="M38.5937 34.1644L33.2067 28.9049L17.3086 44.4284C17.9001 45.0354 18.8646 45.1086 19.9615 44.5015L38.5937 34.1644Z" fill="url(#paint2_linear_1534_14569)"/>
<path d="M38.5937 23.6453L19.9615 13.3082C18.8646 12.7074 17.9001 12.7805 17.3086 13.3876L33.2067 28.9049L38.5937 23.6453Z" fill="url(#paint3_linear_1534_14569)"/>
<path d="M64 5.00002L4 48V30.359L40 5.00002H64Z" fill="#F9F9F8"/>
<path d="M10.6465 35.8143C10.9978 36.4206 11.1079 37.0241 10.9768 37.625C10.8471 38.2185 10.4898 38.7158 9.90487 39.1171C9.24079 39.5727 8.55477 39.7135 7.84682 39.5394C7.13886 39.3654 6.52995 38.9067 6.02006 38.1635C5.71232 37.7149 5.519 37.2493 5.4401 36.7666C5.35819 36.2795 5.41181 35.8061 5.60098 35.3465C5.78713 34.8825 6.1111 34.4921 6.57288 34.1753C7.06985 33.8343 7.59808 33.6757 8.15758 33.6993C8.71406 33.7186 9.2077 33.962 9.63847 34.4297L8.82046 34.9909C8.57019 34.7486 8.2874 34.6192 7.97209 34.6027C7.65375 34.5818 7.34286 34.6754 7.0394 34.8836C6.72715 35.0978 6.52141 35.3683 6.4222 35.6951C6.32739 36.0188 6.3228 36.3421 6.40845 36.6649C6.49549 36.9804 6.64309 37.2898 6.85127 37.5933C7.00816 37.822 7.18238 38.0194 7.37394 38.1855C7.5655 38.3516 7.77289 38.4842 7.9961 38.5833C8.2163 38.678 8.45126 38.7141 8.70096 38.6915C8.95507 38.6659 9.20306 38.5702 9.44495 38.4043C10.1442 37.9245 10.2699 37.2498 9.82192 36.38L10.6465 35.8143ZM11.6843 32.5799C12.2033 32.2239 12.7283 32.103 13.2594 32.2173C13.7905 32.3315 14.2447 32.6635 14.6218 33.2133C15.002 33.7674 15.1497 34.3128 15.0651 34.8494C14.9849 35.3831 14.6832 35.8294 14.1598 36.1884C13.6277 36.5535 13.0938 36.6804 12.5583 36.5692C12.0228 36.4579 11.565 36.1252 11.1848 35.5711C10.8077 35.0214 10.6636 34.4767 10.7526 33.937C10.846 33.3943 11.1566 32.942 11.6843 32.5799ZM12.9995 33.0262C12.6845 32.9254 12.3775 32.9775 12.0784 33.1827C11.7794 33.3878 11.618 33.657 11.5943 33.9902C11.5706 34.3233 11.687 34.6768 11.9435 35.0507C12.206 35.4333 12.4969 35.6735 12.8162 35.7713C13.1356 35.8692 13.447 35.814 13.7504 35.6058C14.0451 35.4037 14.2021 35.1375 14.2214 34.8074C14.242 34.4698 14.1211 34.1097 13.8586 33.7271C13.6022 33.3533 13.3158 33.1197 12.9995 33.0262ZM14.8051 30.5845L15.1354 31.0661C15.1544 30.4904 15.3794 30.0547 15.8104 29.759C16.0347 29.6052 16.2629 29.523 16.495 29.5125C16.7315 29.499 16.9527 29.5575 17.1586 29.6879C17.1658 29.1138 17.4003 28.6684 17.862 28.3516C18.1831 28.1313 18.5155 28.0456 18.8594 28.0942C19.2002 28.1385 19.4868 28.33 19.7191 28.6686L21.3755 31.0831L20.6234 31.599L19.1888 29.5078C19.0229 29.2659 18.8514 29.1055 18.6743 29.0265C18.4972 28.9474 18.2899 28.9894 18.0524 29.1523C17.8105 29.3183 17.6786 29.5219 17.6567 29.7634C17.6317 30.0004 17.7128 30.2552 17.8998 30.5279L19.2711 32.5268L18.519 33.0427L17.0573 30.9119C16.8913 30.67 16.7287 30.5131 16.5695 30.4413C16.4146 30.3664 16.2229 30.4074 15.9942 30.5643C15.7391 30.7393 15.6029 30.9556 15.5856 31.2132C15.5653 31.4665 15.6487 31.7294 15.8358 32.0021L17.1799 33.9614L16.4278 34.4773L14.0926 31.0733L14.8051 30.5845ZM19.6973 25.2978L20.2042 26.0366L19.4521 26.5525L18.9453 25.8137L19.6973 25.2978ZM20.5979 26.6105L22.9331 30.0145L22.1811 30.5304L19.8459 27.1265L20.5979 26.6105ZM22.1364 25.5551L22.4803 26.0565C22.4815 25.4736 22.7217 25.0177 23.2011 24.6889C23.5881 24.4234 23.9486 24.3313 24.2825 24.4127C24.6208 24.491 24.9258 24.7281 25.1973 25.1239L26.7541 27.3932L26.0021 27.9092L24.6444 25.9301C24.5508 25.7938 24.4673 25.6861 24.3938 25.6072C24.3172 25.5239 24.2253 25.4512 24.1179 25.389C24.015 25.3238 23.9023 25.3009 23.7797 25.3203C23.6542 25.3352 23.5189 25.3925 23.3737 25.4921C22.8196 25.8722 22.7794 26.4075 23.253 27.098L24.5112 28.932L23.7591 29.4479L21.4239 26.0439L22.1364 25.5551ZM28.3257 21.3091L30.3894 24.3173C30.7906 24.9022 30.9625 25.4214 30.9049 25.8748C30.8517 26.3253 30.5282 26.7541 29.9345 27.1614C29.0022 27.801 28.2574 27.8043 27.7001 27.1711L28.4522 26.6552C28.7548 26.9456 29.1349 26.9339 29.5923 26.6201C29.9045 26.4059 30.0767 26.1713 30.1088 25.9165C30.1453 25.6586 30.0429 25.3537 29.8016 25.0019L29.5255 24.5995C29.5417 25.1511 29.3123 25.5898 28.8373 25.9156C28.3843 26.2264 27.9196 26.322 27.4432 26.2026C26.9681 26.0758 26.5526 25.7529 26.1965 25.2339C25.8315 24.7018 25.6774 24.1802 25.7342 23.669C25.788 23.1535 26.0436 22.7389 26.501 22.4251C26.7429 22.2591 26.9768 22.1665 27.2029 22.1473C27.426 22.1236 27.6758 22.1624 27.9523 22.2638L27.6264 21.7888L28.3257 21.3091ZM27.0493 22.9415C26.7678 23.1346 26.6151 23.3881 26.5912 23.702C26.5716 24.0129 26.6855 24.3487 26.9329 24.7094C27.1683 25.0524 27.4367 25.2692 27.7382 25.3599C28.0441 25.4476 28.3334 25.3979 28.6061 25.2108C28.8875 25.0177 29.0387 24.762 29.0596 24.4437C29.0776 24.1209 28.9643 23.7815 28.7199 23.4252C28.4816 23.0778 28.2147 22.8631 27.9192 22.7813C27.6251 22.692 27.3351 22.7454 27.0493 22.9415ZM34.4918 17.2149L33.7068 17.7534C33.2812 17.2368 32.7518 17.1958 32.1185 17.6303C31.8371 17.8234 31.6579 18.0336 31.581 18.2609C31.5012 18.4839 31.5306 18.6965 31.6694 18.8988C31.7991 19.0879 31.9453 19.1785 32.1079 19.1704C32.2749 19.1593 32.5933 19.067 33.0629 18.8936C33.1895 18.852 33.286 18.8182 33.3522 18.7922C33.9661 18.5651 34.4038 18.4394 34.6653 18.4152C35.237 18.3529 35.6857 18.5592 36.0116 19.0342C36.1534 19.2409 36.2464 19.452 36.2907 19.6674C36.335 19.8828 36.337 20.0884 36.2967 20.2842C36.2533 20.4756 36.176 20.6645 36.0645 20.8509C35.9531 21.0373 35.82 21.2062 35.6652 21.3577C35.5134 21.5135 35.343 21.6563 35.1538 21.7861C34.5645 22.1904 33.9908 22.377 33.4327 22.3459C32.8746 22.3149 32.4084 22.0267 32.0343 21.4813L32.8457 20.9247C33.0811 21.2677 33.3682 21.4459 33.7072 21.4591C34.0431 21.468 34.3914 21.3487 34.752 21.1013C35.0686 20.8841 35.2712 20.6513 35.3596 20.4031C35.4494 20.1475 35.4144 19.9031 35.2544 19.67C35.1519 19.5205 35.0205 19.4327 34.8604 19.4068C34.7017 19.3734 34.5538 19.3746 34.4167 19.4104C34.2796 19.4463 34.0505 19.5226 33.7296 19.6392C33.6928 19.6516 33.6641 19.6616 33.6434 19.6692C32.9559 19.921 32.4866 20.0618 32.2356 20.0918C31.7172 20.1564 31.303 19.991 30.993 19.5957C30.9719 19.5649 30.9507 19.5341 30.9296 19.5033C30.643 19.0855 30.5713 18.6464 30.7146 18.1859C30.8593 17.718 31.1955 17.303 31.7233 16.941C32.2334 16.591 32.732 16.4268 33.219 16.4485C33.706 16.4701 34.1303 16.7256 34.4918 17.2149ZM36.7383 15.3923C37.2573 15.0363 37.7823 14.9155 38.3134 15.0297C38.8445 15.144 39.2987 15.476 39.6758 16.0257C40.056 16.5798 40.2037 17.1252 40.1191 17.6619C40.0389 18.1955 39.7372 18.6418 39.2138 19.0008C38.6817 19.3659 38.1478 19.4928 37.6123 19.3816C37.0768 19.2704 36.619 18.9377 36.2388 18.3835C35.8617 17.8338 35.7176 17.2891 35.8066 16.7494C35.9 16.2068 36.2106 15.7544 36.7383 15.3923ZM38.0534 15.8387C37.7385 15.7378 37.4315 15.79 37.1324 15.9951C36.8334 16.2003 36.672 16.4694 36.6483 16.8026C36.6246 17.1358 36.741 17.4893 36.9975 17.8631C37.2599 18.2457 37.5509 18.4859 37.8702 18.5838C38.1896 18.6816 38.501 18.6264 38.8044 18.4182C39.0991 18.2161 39.2561 17.95 39.2754 17.6198C39.296 17.2822 39.1751 16.9222 38.9126 16.5395C38.6562 16.1657 38.3698 15.9321 38.0534 15.8387ZM40.6488 12.7097C41.1677 12.3537 41.6928 12.2328 42.2239 12.347C42.755 12.4613 43.2091 12.7933 43.5863 13.343C43.9664 13.8972 44.1142 14.4426 44.0296 14.9792C43.9494 15.5128 43.6476 15.9592 43.1243 16.3182C42.5921 16.6833 42.0583 16.8102 41.5228 16.6989C40.9873 16.5877 40.5294 16.255 40.1493 15.7009C39.7721 15.1511 39.6281 14.6064 39.7171 14.0668C39.8105 13.5241 40.121 13.0717 40.6488 12.7097ZM41.9639 13.156C41.6489 13.0551 41.3419 13.1073 41.0429 13.3125C40.7438 13.5176 40.5825 13.7868 40.5588 14.1199C40.5351 14.4531 40.6515 14.8066 40.9079 15.1804C41.1704 15.563 41.4613 15.8033 41.7807 15.9011C42.1 15.9989 42.4114 15.9438 42.7149 15.7356C43.0096 15.5334 43.1665 15.2673 43.1858 14.9372C43.2065 14.5996 43.0856 14.2395 42.8231 13.8569C42.5666 13.4831 42.2802 13.2494 41.9639 13.156ZM43.7695 10.7143L44.1135 11.2157C44.1146 10.6328 44.3549 10.1769 44.8342 9.84808C45.2212 9.58258 45.5817 9.49051 45.9156 9.57187C46.254 9.65022 46.5589 9.88731 46.8304 10.2831L48.3873 12.5524L47.6352 13.0684L46.2775 11.0893C46.184 10.953 46.1005 10.8453 46.0269 10.7664C45.9504 10.6831 45.8584 10.6104 45.7511 10.5482C45.6482 10.483 45.5354 10.4601 45.4129 10.4795C45.2874 10.4944 45.152 10.5517 45.0069 10.6513C44.4527 11.0314 44.4125 11.5667 44.8862 12.2572L46.1443 14.0912L45.3923 14.6071L43.0571 11.2031L43.7695 10.7143ZM46.8751 6.68234L47.7983 8.02811L48.9946 10.2246L48.6054 10.4916L46.998 8.58683L46.0702 7.23447L46.8751 6.68234ZM49.5489 10.5234L50.1237 11.3612L49.2661 11.9496L48.6913 11.1117L49.5489 10.5234Z" fill="black"/>
<defs>
<linearGradient id="paint0_linear_1534_14569" x1="31.803" y1="42.964" x2="10.9108" y2="21.5656" gradientUnits="userSpaceOnUse">
<stop stop-color="#00A0FF"/>
<stop offset="0.0066" stop-color="#00A1FF"/>
<stop offset="0.2601" stop-color="#00BEFF"/>
<stop offset="0.5122" stop-color="#00D2FF"/>
<stop offset="0.7604" stop-color="#00DFFF"/>
<stop offset="1" stop-color="#00E3FF"/>
</linearGradient>
<linearGradient id="paint1_linear_1534_14569" x1="47.1529" y1="28.9031" x2="16.2918" y2="28.9031" gradientUnits="userSpaceOnUse">
<stop stop-color="#FFE000"/>
<stop offset="0.4087" stop-color="#FFBD00"/>
<stop offset="0.7754" stop-color="#FFA500"/>
<stop offset="1" stop-color="#FF9C00"/>
</linearGradient>
<linearGradient id="paint2_linear_1534_14569" x1="35.6644" y1="26.0457" x2="7.33291" y2="-2.97232" gradientUnits="userSpaceOnUse">
<stop stop-color="#FF3A44"/>
<stop offset="1" stop-color="#C31162"/>
</linearGradient>
<linearGradient id="paint3_linear_1534_14569" x1="13.3067" y1="53.5903" x2="25.958" y2="40.6326" gradientUnits="userSpaceOnUse">
<stop stop-color="#32A071"/>
<stop offset="0.0685" stop-color="#2DA771"/>
<stop offset="0.4762" stop-color="#15CF74"/>
<stop offset="0.8009" stop-color="#06E775"/>
<stop offset="1" stop-color="#00F076"/>
</linearGradient>
</defs>
</svg>
