<svg width="173" height="50" viewBox="0 0 173 50" fill="none" xmlns="http://www.w3.org/2000/svg">
<path d="M171.459 44.0943C171.459 46.7488 169.264 48.8989 166.55 48.8989H5.87328C3.15967 48.8989 0.957031 46.7488 0.957031 44.0943V5.77963C0.957031 3.12647 3.15967 0.968811 5.87328 0.968811H166.548C169.264 0.968811 171.458 3.12647 171.458 5.77963L171.459 44.0943Z" fill="black"/>
<path d="M38.4791 24.6649C38.442 20.6514 41.8495 18.6989 42.0053 18.608C40.0755 15.8647 37.0844 15.4899 36.0333 15.46C33.5211 15.2023 31.0842 16.9257 29.8045 16.9257C28.4992 16.9257 26.5286 15.4849 24.4046 15.5273C21.6715 15.5684 19.1146 17.1112 17.7122 19.5071C14.8182 24.3921 16.9766 31.571 19.7493 35.5196C21.1363 37.4535 22.7571 39.6127 24.8785 39.5368C26.9539 39.4533 27.7291 38.2467 30.2336 38.2467C32.7152 38.2467 33.4432 39.5368 35.6067 39.4882C37.8341 39.4533 39.2364 37.5456 40.5749 35.5943C42.1777 33.3778 42.8214 31.1949 42.847 31.0828C42.7946 31.0654 38.5212 29.4752 38.4791 24.6649Z" fill="white"/>
<path d="M34.3921 12.8625C35.5084 11.5014 36.2721 9.64973 36.0601 7.77066C34.4445 7.84039 32.424 8.86025 31.2605 10.1914C30.2311 11.3644 29.3115 13.2871 29.5491 15.0952C31.3639 15.2272 33.2273 14.2023 34.3921 12.8625Z" fill="white"/>
<path d="M68.5131 39.2591H65.6126L64.0238 34.3914H58.5013L56.9879 39.2591H54.1641L59.6355 22.6874H63.0149L68.5131 39.2591ZM63.5449 32.3492L62.1081 28.022C61.9561 27.58 61.6713 26.5389 61.2511 24.9002H61.2C61.0327 25.605 60.7632 26.646 60.3928 28.022L58.9816 32.3492H63.5449Z" fill="white"/>
<path d="M82.5836 33.1375C82.5836 35.1698 82.0204 36.7761 80.8939 37.9554C79.8849 39.0051 78.632 39.5294 77.1365 39.5294C75.5221 39.5294 74.3624 38.964 73.6562 37.8333H73.6051V44.128H70.8821V31.2435C70.8821 29.9659 70.8477 28.6547 70.7812 27.3098H73.1759L73.3279 29.2038H73.379C74.2871 27.7768 75.6652 27.0645 77.5145 27.0645C78.9603 27.0645 80.1672 27.6211 81.1327 28.7356C82.1008 29.8513 82.5836 31.3182 82.5836 33.1375ZM79.8096 33.2347C79.8096 32.0716 79.5414 31.1128 79.0024 30.3581C78.4136 29.5712 77.6231 29.1777 76.632 29.1777C75.9602 29.1777 75.3497 29.3968 74.8043 29.8289C74.2577 30.2648 73.9001 30.8338 73.7328 31.5386C73.6485 31.8674 73.6064 32.1364 73.6064 32.348V34.3404C73.6064 35.2096 73.8797 35.9431 74.4263 36.542C74.9729 37.141 75.683 37.4398 76.5566 37.4398C77.5822 37.4398 78.3804 37.0538 78.9513 36.2843C79.5235 35.5135 79.8096 34.4973 79.8096 33.2347Z" fill="white"/>
<path d="M96.68 33.1375C96.68 35.1698 96.1167 36.7761 94.989 37.9554C93.9813 39.0051 92.7284 39.5294 91.2328 39.5294C89.6185 39.5294 88.4588 38.964 87.7538 37.8333H87.7027V44.128H84.9798V31.2435C84.9798 29.9659 84.9453 28.6547 84.8789 27.3098H87.2736L87.4256 29.2038H87.4767C88.3835 27.7768 89.7615 27.0645 91.6122 27.0645C93.0566 27.0645 94.2636 27.6211 95.2317 28.7356C96.1959 29.8513 96.68 31.3182 96.68 33.1375ZM93.906 33.2347C93.906 32.0716 93.6365 31.1128 93.0975 30.3581C92.5087 29.5712 91.7207 29.1777 90.7284 29.1777C90.0553 29.1777 89.4461 29.3968 88.8994 29.8289C88.3528 30.2648 87.9965 30.8338 87.8292 31.5386C87.7462 31.8674 87.7027 32.1364 87.7027 32.348V34.3404C87.7027 35.2096 87.976 35.9431 88.5201 36.542C89.0667 37.1397 89.7769 37.4398 90.653 37.4398C91.6786 37.4398 92.4768 37.0538 93.0477 36.2843C93.6199 35.5135 93.906 34.4973 93.906 33.2347Z" fill="white"/>
<path d="M112.439 34.6119C112.439 36.0215 111.937 37.1684 110.929 38.0537C109.822 39.0213 108.28 39.5044 106.3 39.5044C104.471 39.5044 103.004 39.1607 101.895 38.4721L102.525 36.2593C103.721 36.9641 105.033 37.3178 106.462 37.3178C107.487 37.3178 108.285 37.0911 108.859 36.6404C109.43 36.1896 109.715 35.5844 109.715 34.8298C109.715 34.1574 109.48 33.5908 109.008 33.1313C108.54 32.6718 107.757 32.2447 106.663 31.8499C103.688 30.7678 102.201 29.1826 102.201 27.0981C102.201 25.7358 102.722 24.6188 103.766 23.7496C104.805 22.8792 106.192 22.4446 107.927 22.4446C109.473 22.4446 110.758 22.7074 111.784 23.2316L111.103 25.3958C110.145 24.8878 109.062 24.6337 107.85 24.6337C106.892 24.6337 106.144 24.8641 105.607 25.3224C105.154 25.7321 104.927 26.2314 104.927 26.8229C104.927 27.4779 105.186 28.0196 105.707 28.4454C106.16 28.8389 106.984 29.2648 108.179 29.7243C109.642 30.2984 110.716 30.9695 111.407 31.7391C112.095 32.5062 112.439 33.4662 112.439 34.6119Z" fill="white"/>
<path d="M121.442 29.3021H118.441V35.1037C118.441 36.5793 118.97 37.3165 120.03 37.3165C120.516 37.3165 120.92 37.2754 121.239 37.1932L121.315 39.2093C120.778 39.4048 120.072 39.5032 119.197 39.5032C118.122 39.5032 117.281 39.1831 116.675 38.5443C116.071 37.9043 115.767 36.8309 115.767 35.3229V29.2997H113.979V27.3073H115.767V25.1194L118.441 24.3324V27.3073H121.442V29.3021Z" fill="white"/>
<path d="M134.985 33.1861C134.985 35.0228 134.446 36.5308 133.37 37.71C132.243 38.9241 130.746 39.5293 128.88 39.5293C127.081 39.5293 125.65 38.9478 124.582 37.7847C123.514 36.6217 122.98 35.1536 122.98 33.3841C122.98 31.5324 123.53 30.0157 124.632 28.8364C125.731 27.656 127.216 27.0657 129.082 27.0657C130.88 27.0657 132.327 27.6472 133.419 28.8115C134.464 29.941 134.985 31.3991 134.985 33.1861ZM132.159 33.272C132.159 32.17 131.918 31.2248 131.429 30.4366C130.858 29.4827 130.042 29.007 128.984 29.007C127.89 29.007 127.058 29.484 126.488 30.4366C125.998 31.2261 125.757 32.1861 125.757 33.3218C125.757 34.4238 125.998 35.369 126.488 36.156C127.076 37.1098 127.899 37.5855 128.96 37.5855C130 37.5855 130.816 37.0999 131.405 36.1311C131.907 35.3279 132.159 34.3728 132.159 33.272Z" fill="white"/>
<path d="M143.836 29.6446C143.567 29.5961 143.279 29.5712 142.978 29.5712C142.02 29.5712 141.279 29.9236 140.758 30.6296C140.305 31.2522 140.078 32.0392 140.078 32.9893V39.2591H137.356L137.381 31.0729C137.381 29.6957 137.347 28.4417 137.279 27.311H139.651L139.751 29.5973H139.826C140.113 28.8116 140.567 28.179 141.187 27.7045C141.794 27.2774 142.449 27.0645 143.156 27.0645C143.407 27.0645 143.635 27.0819 143.836 27.113V29.6446Z" fill="white"/>
<path d="M156.013 32.7191C156.013 33.1948 155.981 33.5957 155.913 33.9232H147.744C147.776 35.1037 148.171 36.0065 148.93 36.6292C149.618 37.1858 150.508 37.4647 151.601 37.4647C152.811 37.4647 153.914 37.2767 154.907 36.8994L155.333 38.7423C154.174 39.2354 152.805 39.4808 151.225 39.4808C149.324 39.4808 147.833 38.9353 146.747 37.8458C145.664 36.7562 145.121 35.293 145.121 33.4575C145.121 31.6557 145.626 30.1551 146.636 28.9585C147.693 27.6808 149.122 27.042 150.921 27.042C152.687 27.042 154.024 27.6808 154.932 28.9585C155.651 29.9733 156.013 31.2285 156.013 32.7191ZM153.416 32.0305C153.434 31.2435 153.257 30.5636 152.888 29.9895C152.416 29.2511 151.692 28.8825 150.718 28.8825C149.827 28.8825 149.103 29.2424 148.55 29.9646C148.097 30.5387 147.827 31.2273 147.744 32.0292H153.416V32.0305Z" fill="white"/>
<path d="M62.6448 12.4927C62.6448 13.9583 62.1939 15.0616 61.2935 15.8025C60.4595 16.4861 59.2743 16.8286 57.7392 16.8286C56.978 16.8286 56.3266 16.7962 55.7812 16.7315V8.72331C56.4926 8.61124 57.2589 8.55396 58.0865 8.55396C59.5489 8.55396 60.6511 8.86402 61.3944 9.48415C62.2271 10.1852 62.6448 11.1876 62.6448 12.4927ZM61.2335 12.5288C61.2335 11.5786 60.9755 10.8502 60.4595 10.3421C59.9436 9.83531 59.19 9.58128 58.1977 9.58128C57.7762 9.58128 57.4173 9.60867 57.1197 9.66596V15.7539C57.2845 15.7789 57.5859 15.7901 58.024 15.7901C59.0483 15.7901 59.8388 15.5124 60.3957 14.957C60.9525 14.4016 61.2335 13.5922 61.2335 12.5288Z" fill="white"/>
<path d="M70.1272 13.7727C70.1272 14.6755 69.8628 15.4152 69.334 15.9955C68.7798 16.592 68.0454 16.8896 67.1284 16.8896C66.2446 16.8896 65.5408 16.6044 65.0159 16.0316C64.4923 15.46 64.2305 14.739 64.2305 13.8699C64.2305 12.9608 64.4999 12.2149 65.0415 11.6359C65.583 11.0569 66.311 10.7667 67.228 10.7667C68.1118 10.7667 68.8219 11.0519 69.3596 11.6234C69.8705 12.1788 70.1272 12.8961 70.1272 13.7727ZM68.7389 13.8151C68.7389 13.2734 68.6188 12.8089 68.38 12.4216C68.099 11.9534 67.6993 11.7193 67.1795 11.7193C66.6418 11.7193 66.2331 11.9534 65.9521 12.4216C65.712 12.8089 65.5932 13.2809 65.5932 13.8387C65.5932 14.3804 65.7133 14.8449 65.9521 15.2322C66.242 15.7004 66.6456 15.9345 67.1667 15.9345C67.6776 15.9345 68.0786 15.6966 68.3672 15.2197C68.615 14.825 68.7389 14.3568 68.7389 13.8151Z" fill="white"/>
<path d="M80.1606 10.8863L78.2767 16.7564H77.0507L76.2703 14.2074C76.0724 13.571 75.9114 12.9385 75.7863 12.3108H75.762C75.6458 12.9559 75.4849 13.5872 75.278 14.2074L74.4491 16.7564H73.2089L71.4375 10.8863H72.813L73.4937 13.6769C73.6585 14.3369 73.7939 14.9657 73.9024 15.5609H73.9267C74.0263 15.0703 74.1911 14.4452 74.4235 13.6893L75.278 10.8875H76.3687L77.1873 13.6296C77.3853 14.2983 77.5462 14.942 77.6701 15.5622H77.7071C77.7978 14.9582 77.9345 14.3144 78.1158 13.6296L78.8464 10.8875H80.1606V10.8863Z" fill="white"/>
<path d="M87.1015 16.7564H85.763V13.3942C85.763 12.3582 85.3594 11.8401 84.5497 11.8401C84.1525 11.8401 83.8319 11.9821 83.5829 12.2673C83.3364 12.5524 83.2112 12.8886 83.2112 13.2734V16.7551H81.8727V12.5636C81.8727 12.0481 81.8561 11.489 81.8242 10.8838H83.0005L83.0631 11.8015H83.1001C83.2559 11.5164 83.4884 11.281 83.7936 11.093C84.1563 10.8738 84.5625 10.763 85.0069 10.763C85.5689 10.763 86.0363 10.9398 86.408 11.2947C86.8703 11.7293 87.1015 12.3781 87.1015 13.2398V16.7564Z" fill="white"/>
<path d="M90.7903 16.7563H89.4531V8.19281H90.7903V16.7563Z" fill="white"/>
<path d="M98.6721 13.7727C98.6721 14.6755 98.4077 15.4152 97.879 15.9955C97.3247 16.592 96.589 16.8896 95.6733 16.8896C94.7882 16.8896 94.0845 16.6044 93.5608 16.0316C93.0372 15.46 92.7754 14.739 92.7754 13.8699C92.7754 12.9608 93.0449 12.2149 93.5864 11.6359C94.1279 11.0569 94.8559 10.7667 95.7716 10.7667C96.6567 10.7667 97.3655 11.0519 97.9045 11.6234C98.4154 12.1788 98.6721 12.8961 98.6721 13.7727ZM97.2825 13.8151C97.2825 13.2734 97.1625 12.8089 96.9236 12.4216C96.6439 11.9534 96.2429 11.7193 95.7244 11.7193C95.1854 11.7193 94.7767 11.9534 94.497 12.4216C94.2569 12.8089 94.1381 13.2809 94.1381 13.8387C94.1381 14.3804 94.2582 14.8449 94.497 15.2322C94.7869 15.7004 95.1905 15.9345 95.7116 15.9345C96.2225 15.9345 96.6222 15.6966 96.9109 15.2197C97.1599 14.825 97.2825 14.3568 97.2825 13.8151Z" fill="white"/>
<path d="M105.15 16.7563H103.948L103.848 16.0802H103.811C103.4 16.6194 102.814 16.8896 102.053 16.8896C101.484 16.8896 101.024 16.7115 100.678 16.3579C100.364 16.0366 100.207 15.6369 100.207 15.1624C100.207 14.4452 100.514 13.8985 101.13 13.52C101.746 13.1414 102.612 12.9559 103.727 12.9646V12.855C103.727 12.0817 103.311 11.6957 102.477 11.6957C101.883 11.6957 101.359 11.8414 100.907 12.1303L100.635 11.2735C101.194 10.9361 101.885 10.7667 102.7 10.7667C104.274 10.7667 105.063 11.5761 105.063 13.1949V15.3567C105.063 15.9432 105.092 16.4102 105.15 16.7563ZM103.76 14.739V13.8338C102.284 13.8088 101.546 14.2036 101.546 15.0167C101.546 15.3231 101.63 15.5522 101.802 15.7054C101.975 15.8585 102.194 15.9345 102.456 15.9345C102.75 15.9345 103.024 15.8436 103.275 15.663C103.526 15.4812 103.681 15.2508 103.738 14.9682C103.752 14.9047 103.76 14.8275 103.76 14.739Z" fill="white"/>
<path d="M112.755 16.7563H111.567L111.505 15.8137H111.468C111.088 16.531 110.442 16.8896 109.534 16.8896C108.809 16.8896 108.205 16.6119 107.726 16.0565C107.247 15.5011 107.008 14.7801 107.008 13.8948C107.008 12.9447 107.267 12.1751 107.788 11.5873C108.293 11.0394 108.911 10.7655 109.646 10.7655C110.455 10.7655 111.021 11.0307 111.343 11.5624H111.368V8.19281H112.708V15.1749C112.708 15.7464 112.723 16.2732 112.755 16.7563ZM111.368 14.2808V13.302C111.368 13.1327 111.355 12.9957 111.331 12.8911C111.256 12.5773 111.093 12.3133 110.847 12.1004C110.598 11.8874 110.298 11.7804 109.952 11.7804C109.452 11.7804 109.061 11.9734 108.774 12.3606C108.489 12.7479 108.345 13.2423 108.345 13.8462C108.345 14.4265 108.482 14.8972 108.756 15.2596C109.046 15.6456 109.437 15.8386 109.926 15.8386C110.365 15.8386 110.717 15.678 110.984 15.3554C111.242 15.0578 111.368 14.6992 111.368 14.2808Z" fill="white"/>
<path d="M124.201 13.7727C124.201 14.6755 123.937 15.4152 123.408 15.9955C122.854 16.592 122.121 16.8896 121.203 16.8896C120.32 16.8896 119.616 16.6044 119.09 16.0316C118.567 15.46 118.305 14.739 118.305 13.8699C118.305 12.9608 118.574 12.2149 119.116 11.6359C119.657 11.0569 120.385 10.7667 121.303 10.7667C122.186 10.7667 122.897 11.0519 123.434 11.6234C123.945 12.1788 124.201 12.8961 124.201 13.7727ZM122.814 13.8151C122.814 13.2734 122.694 12.8089 122.455 12.4216C122.173 11.9534 121.775 11.7193 121.254 11.7193C120.717 11.7193 120.309 11.9534 120.026 12.4216C119.786 12.8089 119.667 13.2809 119.667 13.8387C119.667 14.3804 119.787 14.8449 120.026 15.2322C120.316 15.7004 120.72 15.9345 121.241 15.9345C121.752 15.9345 122.154 15.6966 122.443 15.2197C122.689 14.825 122.814 14.3568 122.814 13.8151Z" fill="white"/>
<path d="M131.399 16.7564H130.062V13.3942C130.062 12.3582 129.658 11.8401 128.847 11.8401C128.45 11.8401 128.129 11.9821 127.882 12.2673C127.634 12.5524 127.51 12.8886 127.51 13.2734V16.7551H126.17V12.5636C126.17 12.0481 126.155 11.489 126.123 10.8838H127.298L127.361 11.8015H127.398C127.555 11.5164 127.787 11.281 128.091 11.093C128.455 10.8738 128.86 10.763 129.306 10.763C129.866 10.763 130.334 10.9398 130.706 11.2947C131.169 11.7293 131.399 12.3781 131.399 13.2398V16.7564Z" fill="white"/>
<path d="M140.407 11.8638H138.933V14.7154C138.933 15.4401 139.195 15.8025 139.713 15.8025C139.954 15.8025 140.153 15.7826 140.31 15.7415L140.344 16.7315C140.08 16.8286 139.733 16.8772 139.305 16.8772C138.776 16.8772 138.365 16.7203 138.067 16.4065C137.768 16.0926 137.62 15.5647 137.62 14.8237V11.8638H136.74V10.8863H137.62V9.8104L138.932 9.42438V10.885H140.406V11.8638H140.407Z" fill="white"/>
<path d="M147.492 16.7563H146.153V13.4191C146.153 12.3669 145.749 11.8401 144.941 11.8401C144.32 11.8401 143.896 12.1452 143.663 12.7554C143.624 12.8836 143.601 13.0405 143.601 13.2248V16.7551H142.264V8.19281H143.601V11.7305H143.626C144.048 11.0868 144.652 10.7655 145.435 10.7655C145.989 10.7655 146.448 10.9423 146.812 11.2972C147.265 11.7393 147.492 12.3967 147.492 13.2659V16.7563Z" fill="white"/>
<path d="M154.802 13.5436C154.802 13.7777 154.784 13.9745 154.752 14.1351H150.738C150.756 14.7154 150.947 15.1575 151.319 15.4638C151.659 15.7377 152.097 15.8747 152.633 15.8747C153.227 15.8747 153.769 15.7826 154.256 15.597L154.466 16.5036C153.895 16.7451 153.223 16.8659 152.445 16.8659C151.513 16.8659 150.779 16.5982 150.247 16.0627C149.714 15.5273 149.449 14.8088 149.449 13.9072C149.449 13.0219 149.696 12.2847 150.193 11.6969C150.711 11.0693 151.412 10.7555 152.297 10.7555C153.163 10.7555 153.821 11.0693 154.265 11.6969C154.624 12.195 154.802 12.8114 154.802 13.5436ZM153.525 13.2062C153.535 12.8189 153.447 12.4852 153.265 12.2037C153.033 11.8414 152.679 11.6596 152.2 11.6596C151.763 11.6596 151.407 11.8364 151.135 12.1913C150.913 12.474 150.781 12.8114 150.738 13.2062H153.525Z" fill="white"/>
</svg>
