<svg width="146" height="48" viewBox="0 0 146 48" fill="none" xmlns="http://www.w3.org/2000/svg">
<path d="M61.7439 23.8912C61.645 25.1873 61.18 26.2261 60.3489 27.0077C59.5277 27.7795 58.4592 28.1653 57.1433 28.1653C55.6494 28.1653 54.4523 27.6607 53.5519 26.6516C52.6516 25.6424 52.2014 24.3018 52.2014 22.6298C52.2014 21.6206 52.3944 20.7054 52.7802 19.8843C53.1661 19.0532 53.7448 18.3854 54.5166 17.8808C55.2883 17.3663 56.1935 17.1091 57.2324 17.1091C58.3504 17.1091 59.3249 17.4207 60.156 18.044C60.9871 18.6574 61.4867 19.5479 61.6549 20.7153H59.8146C59.686 20.0821 59.3892 19.5875 58.9242 19.2313C58.4592 18.8652 57.8854 18.6822 57.2027 18.6822C56.5003 18.6822 55.9017 18.8801 55.407 19.2758C54.9222 19.6716 54.5759 20.1613 54.3682 20.745C54.1703 21.3189 54.0713 21.9471 54.0713 22.6298C54.0713 23.1443 54.1307 23.629 54.2494 24.0842C54.3682 24.5393 54.5462 24.9597 54.7837 25.3456C55.0211 25.7216 55.3427 26.0233 55.7483 26.2509C56.1639 26.4784 56.6437 26.5922 57.1879 26.5922C58.761 26.5922 59.6613 25.6919 59.8888 23.8912H61.7439ZM64.8705 17.3465V21.309C65.4345 20.4779 66.2408 20.0624 67.2895 20.0624C68.1206 20.0624 68.7687 20.2899 69.2337 20.745C69.6987 21.1902 69.9312 21.8482 69.9312 22.7188V27.913H68.2245V23.2679C68.2245 22.6842 68.1206 22.239 67.9128 21.9323C67.715 21.6256 67.3242 21.4722 66.7404 21.4722C66.0875 21.4722 65.6126 21.6849 65.3157 22.1104C65.0189 22.5358 64.8705 23.0997 64.8705 23.8022V27.913H63.1935V17.3465H64.8705ZM78.5568 25.5237C78.3688 26.3548 77.9582 27.0028 77.325 27.4678C76.7017 27.9328 75.9547 28.1653 75.0841 28.1653C73.9265 28.1653 73.0064 27.7943 72.3237 27.0523C71.651 26.3003 71.3146 25.3407 71.3146 24.1732C71.3146 22.9761 71.6609 21.9867 72.3534 21.2051C73.0559 20.4235 73.9463 20.0327 75.0247 20.0327C76.1427 20.0327 77.0282 20.4185 77.6812 21.1902C78.3342 21.9521 78.6607 22.9958 78.6607 24.3216V24.4997H73.0064C73.0262 25.2714 73.2191 25.87 73.5852 26.2954C73.9513 26.7109 74.4608 26.9187 75.1138 26.9187C75.5788 26.9187 75.9547 26.8099 76.2417 26.5922C76.5385 26.3647 76.771 26.0085 76.9392 25.5237H78.5568ZM76.9689 23.3718C76.9194 22.7287 76.7166 22.2241 76.3604 21.8581C76.0141 21.4821 75.5639 21.2941 75.0099 21.2941C74.4558 21.2941 74.0057 21.4722 73.6594 21.8284C73.323 22.1846 73.1152 22.699 73.0361 23.3718H76.9689ZM86.8922 25.0191C86.7735 25.959 86.3975 26.7109 85.7643 27.2749C85.1311 27.8289 84.3347 28.106 83.375 28.106C82.2273 28.106 81.3122 27.7448 80.6295 27.0226C79.9468 26.2905 79.6055 25.3357 79.6055 24.1584C79.6055 22.892 79.9468 21.8877 80.6295 21.1457C81.322 20.3938 82.2521 20.0178 83.4195 20.0178C84.399 20.0178 85.1855 20.2652 85.7792 20.7599C86.3827 21.2546 86.7339 21.9422 86.8328 22.8227H85.1559C85.0569 22.3379 84.8591 21.9669 84.5622 21.7097C84.2654 21.4524 83.8895 21.3238 83.4344 21.3238C82.7814 21.3238 82.2669 21.5711 81.8909 22.0658C81.515 22.5506 81.327 23.2185 81.327 24.0693C81.327 24.9202 81.5051 25.5831 81.8613 26.058C82.2273 26.5329 82.7319 26.7703 83.375 26.7703C83.8796 26.7703 84.2902 26.6219 84.6068 26.3251C84.9333 26.0184 85.141 25.5831 85.2301 25.0191H86.8922ZM94.9902 20.2553L92.0518 23.0602L95.2573 27.913H93.1945L90.8645 24.2177L89.8553 25.1675V27.913H88.208V17.3465H89.8553V23.2976L92.9125 20.2553H94.9902ZM107.552 17.3465V27.913H105.964V26.8593C105.479 27.7003 104.663 28.1208 103.515 28.1208C102.437 28.1208 101.576 27.7547 100.933 27.0226C100.3 26.2905 99.983 25.306 99.983 24.0693C99.983 22.8425 100.295 21.868 100.918 21.1457C101.551 20.4136 102.397 20.0475 103.456 20.0475C104.534 20.0475 105.345 20.4482 105.89 21.2496V17.3465H107.552ZM103.767 21.4129C103.124 21.4129 102.615 21.6503 102.239 22.1252C101.873 22.5902 101.69 23.2283 101.69 24.0396C101.69 24.8806 101.878 25.5435 102.254 26.0283C102.639 26.5131 103.164 26.7555 103.827 26.7555C104.49 26.7555 105.004 26.518 105.37 26.0431C105.746 25.5682 105.934 24.9103 105.934 24.0693C105.934 23.2283 105.741 22.5754 105.355 22.1104C104.979 21.6454 104.45 21.4129 103.767 21.4129ZM116.223 25.5237C116.035 26.3548 115.625 27.0028 114.992 27.4678C114.368 27.9328 113.621 28.1653 112.751 28.1653C111.593 28.1653 110.673 27.7943 109.99 27.0523C109.318 26.3003 108.981 25.3407 108.981 24.1732C108.981 22.9761 109.328 21.9867 110.02 21.2051C110.723 20.4235 111.613 20.0327 112.691 20.0327C113.809 20.0327 114.695 20.4185 115.348 21.1902C116.001 21.9521 116.327 22.9958 116.327 24.3216V24.4997H110.673C110.693 25.2714 110.886 25.87 111.252 26.2954C111.618 26.7109 112.127 26.9187 112.78 26.9187C113.245 26.9187 113.621 26.8099 113.908 26.5922C114.205 26.3647 114.438 26.0085 114.606 25.5237H116.223ZM114.636 23.3718C114.586 22.7287 114.383 22.2241 114.027 21.8581C113.681 21.4821 113.231 21.2941 112.677 21.2941C112.123 21.2941 111.672 21.4722 111.326 21.8284C110.99 22.1846 110.782 22.699 110.703 23.3718H114.636ZM119.231 20.2553V21.3386C119.864 20.4779 120.666 20.0475 121.635 20.0475C122.14 20.0475 122.575 20.1613 122.941 20.3889C123.317 20.6164 123.594 20.938 123.772 21.3535C124.386 20.4828 125.212 20.0475 126.251 20.0475C126.973 20.0475 127.572 20.2652 128.046 20.7005C128.521 21.1259 128.759 21.7196 128.759 22.4814V27.913H127.067V23.2086C127.067 22.6644 126.973 22.239 126.785 21.9323C126.597 21.6256 126.236 21.4722 125.702 21.4722C125.157 21.4722 124.742 21.6454 124.455 21.9916C124.168 22.328 124.025 22.8029 124.025 23.4163V27.913H122.333V23.1195C122.333 22.5754 122.249 22.1648 122.081 21.8877C121.922 21.6107 121.586 21.4722 121.071 21.4722C120.498 21.4722 120.062 21.6602 119.765 22.0362C119.469 22.4022 119.32 22.892 119.32 23.5054V27.913H117.628V20.2553H119.231ZM134.073 20.0327C135.241 20.0327 136.171 20.3987 136.863 21.1309C137.556 21.863 137.902 22.8474 137.902 24.0842C137.902 25.3308 137.556 26.3201 136.863 27.0523C136.181 27.7844 135.251 28.1505 134.073 28.1505C132.876 28.1505 131.926 27.7844 131.224 27.0523C130.522 26.3201 130.17 25.3308 130.17 24.0842C130.17 22.8474 130.522 21.863 131.224 21.1309C131.936 20.3987 132.886 20.0327 134.073 20.0327ZM135.617 22.0955C135.241 21.6107 134.717 21.3683 134.044 21.3683C133.371 21.3683 132.842 21.6107 132.456 22.0955C132.07 22.5803 131.877 23.2432 131.877 24.0842C131.877 24.9449 132.07 25.6177 132.456 26.1025C132.842 26.5873 133.376 26.8297 134.059 26.8297C134.721 26.8297 135.241 26.5873 135.617 26.1025C136.003 25.6078 136.196 24.9301 136.196 24.0693C136.196 23.2283 136.003 22.5704 135.617 22.0955Z" fill="#5444F2"/>
<path opacity="0.4" d="M23.6948 43.3671C34.3669 43.3671 43.0184 34.7156 43.0184 24.0435C43.0184 13.3713 34.3669 4.71979 23.6948 4.71979C13.0226 4.71979 4.37109 13.3713 4.37109 24.0435C4.37109 34.7156 13.0226 43.3671 23.6948 43.3671Z" fill="#4169E1"/>
<path d="M29.493 20.6232L23.8891 17.3961C22.4978 16.5845 20.8167 16.5845 19.4253 17.3961C18.034 18.2077 17.2031 19.6377 17.2031 21.2609V27.7343C17.2031 29.3382 18.034 30.7874 19.4253 31.599C20.121 32.0048 20.8939 32.1981 21.6476 32.1981C22.4205 32.1981 23.1741 32.0048 23.8698 31.599L29.4737 28.372C30.865 27.5604 31.6959 26.1304 31.6959 24.5073C31.7345 22.8841 30.9036 21.4348 29.493 20.6232Z" fill="#4169E1"/>
</svg>
