<svg width="173" height="51" viewBox="0 0 173 51" fill="none" xmlns="http://www.w3.org/2000/svg">
<path d="M160.842 49.029H6.93745C3.55308 49.029 0.78125 46.3227 0.78125 43.0184V6.95513C0.78125 3.65083 3.55308 0.944578 6.93745 0.944578H160.842C164.227 0.944578 166.999 3.65083 166.999 6.95513V43.0184C166.999 46.3227 164.227 49.029 160.842 49.029Z" fill="black"/>
<path d="M61.2588 13.0332C61.2588 14.073 60.94 14.9058 60.3118 15.5268C59.5896 16.2631 58.649 16.6335 57.4964 16.6335C56.3947 16.6335 55.4541 16.2568 54.6825 15.5144C53.9092 14.761 53.5234 13.8364 53.5234 12.7297C53.5234 11.623 53.9092 10.6984 54.6825 9.95125C55.4541 9.20255 56.3947 8.82587 57.4964 8.82587C58.0448 8.82587 58.5677 8.93638 59.0667 9.14185C59.5641 9.34887 59.9691 9.62905 60.2624 9.9746L59.596 10.6315C59.0842 10.0415 58.3876 9.75046 57.4964 9.75046C56.6928 9.75046 55.9962 10.0244 55.4047 10.577C54.8196 11.1311 54.5262 11.8487 54.5262 12.7297C54.5262 13.6107 54.8196 14.3345 55.4047 14.8886C55.9962 15.435 56.6928 15.7152 57.4964 15.7152C58.3493 15.7152 59.0667 15.435 59.6327 14.8824C60.0057 14.5166 60.2178 14.0123 60.2736 13.3679H57.4964V12.4682H61.2014C61.2461 12.6628 61.2588 12.8511 61.2588 13.0332Z" fill="white"/>
<path d="M67.1355 9.91388H63.6552V12.2798H66.7927V13.1795H63.6552V15.5455H67.1355V16.4623H62.6699V8.99707H67.1355V9.91388Z" fill="white"/>
<path d="M71.284 16.4623H70.2988V9.91388H68.1641V8.99707H73.4204V9.91388H71.284V16.4623Z" fill="white"/>
<path d="M77.2246 16.4623V8.99707H78.2083V16.4623H77.2246Z" fill="white"/>
<path d="M82.5692 16.4623H81.5919V9.91388H79.4492V8.99707H84.7119V9.91388H82.5692V16.4623Z" fill="white"/>
<path d="M94.6628 15.5019C93.9087 16.2568 92.9745 16.6335 91.8601 16.6335C90.7393 16.6335 89.8051 16.2568 89.051 15.5019C88.2985 14.7485 87.9238 13.824 87.9238 12.7297C87.9238 11.6354 88.2985 10.7109 89.051 9.95748C89.8051 9.20255 90.7393 8.82587 91.8601 8.82587C92.9681 8.82587 93.9023 9.20255 94.6564 9.96371C95.4153 10.7233 95.79 11.6417 95.79 12.7297C95.79 13.824 95.4153 14.7485 94.6628 15.5019ZM89.7796 14.8762C90.3471 15.435 91.0374 15.7152 91.8601 15.7152C92.6763 15.7152 93.373 15.435 93.9342 14.8762C94.5002 14.3174 94.7872 13.5998 94.7872 12.7297C94.7872 11.8596 94.5002 11.142 93.9342 10.5832C93.373 10.0244 92.6763 9.74423 91.8601 9.74423C91.0374 9.74423 90.3471 10.0244 89.7796 10.5832C89.2136 11.142 88.9266 11.8596 88.9266 12.7297C88.9266 13.5998 89.2136 14.3174 89.7796 14.8762Z" fill="white"/>
<path d="M97.1719 16.4623V8.99707H98.3676L102.085 14.803H102.128L102.085 13.3679V8.99707H103.069V16.4623H102.042L98.1492 10.3699H98.1061L98.1492 11.8113V16.4623H97.1719Z" fill="white"/>
<path d="M87.6824 27.3644C84.6867 27.3644 82.2395 29.5903 82.2395 32.6614C82.2395 35.7076 84.6867 37.9568 87.6824 37.9568C90.6844 37.9568 93.1316 35.7076 93.1316 32.6614C93.1316 29.5903 90.6844 27.3644 87.6824 27.3644ZM87.6824 35.871C86.0387 35.871 84.6246 34.5464 84.6246 32.6614C84.6246 30.7515 86.0387 29.4502 87.6824 29.4502C89.3261 29.4502 90.7466 30.7515 90.7466 32.6614C90.7466 34.5464 89.3261 35.871 87.6824 35.871ZM75.8067 27.3644C72.8047 27.3644 70.3638 29.5903 70.3638 32.6614C70.3638 35.7076 72.8047 37.9568 75.8067 37.9568C78.8071 37.9568 81.2495 35.7076 81.2495 32.6614C81.2495 29.5903 78.8071 27.3644 75.8067 27.3644ZM75.8067 35.871C74.1614 35.871 72.7425 34.5464 72.7425 32.6614C72.7425 30.7515 74.1614 29.4502 75.8067 29.4502C77.4504 29.4502 78.8645 30.7515 78.8645 32.6614C78.8645 34.5464 77.4504 35.871 75.8067 35.871ZM61.6751 28.9879V31.2387H67.1801C67.0191 32.4964 66.5886 33.421 65.9286 34.0654C65.1251 34.8437 63.8736 35.7075 61.6751 35.7075C58.2872 35.7075 55.6344 33.0381 55.6344 29.7304C55.6344 26.4227 58.2872 23.7532 61.6751 23.7532C63.5069 23.7532 64.8397 24.4521 65.8234 25.358L67.4479 23.7719C66.0721 22.4893 64.2418 21.504 61.6751 21.504C57.0294 21.504 53.125 25.1946 53.125 29.7304C53.125 34.2662 57.0294 37.9568 61.6751 37.9568C64.186 37.9568 66.0721 37.1536 67.5547 35.6468C69.0741 34.1635 69.5476 32.0777 69.5476 30.3935C69.5476 29.8705 69.5029 29.3895 69.4232 28.9879H61.6751ZM119.461 30.7328C119.013 29.5483 117.631 27.3644 114.815 27.3644C112.025 27.3644 109.702 29.5109 109.702 32.6614C109.702 35.6282 112.001 37.9568 115.083 37.9568C117.575 37.9568 119.013 36.4734 119.604 35.6095L117.755 34.4063C117.138 35.2873 116.298 35.871 115.083 35.871C113.876 35.871 113.011 35.3309 112.456 34.2662L119.711 31.3352L119.461 30.7328ZM112.064 32.4964C112.001 30.4542 113.688 29.4082 114.897 29.4082C115.844 29.4082 116.647 29.8705 116.915 30.532L112.064 32.4964ZM106.166 37.6346H108.551V22.069H106.166V37.6346ZM102.26 28.5443H102.181C101.645 27.9248 100.623 27.3644 99.3285 27.3644C96.6119 27.3644 94.128 29.693 94.128 32.6785C94.128 35.6468 96.6119 37.9568 99.3285 37.9568C100.623 37.9568 101.645 37.3917 102.181 36.7536H102.26V37.5132C102.26 39.5382 101.152 40.6263 99.3652 40.6263C97.908 40.6263 97.0041 39.5989 96.631 38.735L94.5569 39.5803C95.1547 40.9843 96.7378 42.712 99.3652 42.712C102.162 42.712 104.521 41.1057 104.521 37.1972V27.6866H102.26V28.5443ZM99.5326 35.871C97.8889 35.871 96.513 34.5277 96.513 32.6785C96.513 30.8122 97.8889 29.4502 99.5326 29.4502C101.152 29.4502 102.429 30.8122 102.429 32.6785C102.429 34.5277 101.152 35.871 99.5326 35.871ZM130.627 22.069H124.923V37.6346H127.302V31.7368H130.627C133.269 31.7368 135.86 29.8705 135.86 26.9021C135.86 23.9353 133.263 22.069 130.627 22.069ZM130.689 29.5716H127.302V24.2342H130.689C132.465 24.2342 133.479 25.674 133.479 26.9021C133.479 28.1069 132.465 29.5716 130.689 29.5716ZM145.393 27.3349C143.675 27.3349 141.888 28.0758 141.153 29.7179L143.263 30.5818C143.718 29.7179 144.553 29.4378 145.436 29.4378C146.67 29.4378 147.922 30.1616 147.941 31.4395V31.6029C147.511 31.3601 146.589 31.0005 145.456 31.0005C143.182 31.0005 140.866 32.2224 140.866 34.5028C140.866 36.5886 142.728 37.9319 144.821 37.9319C146.422 37.9319 147.305 37.2267 147.86 36.4064H147.941V37.6097H150.238V31.6387C150.238 28.879 148.128 27.3349 145.393 27.3349ZM145.106 35.8648C144.328 35.8648 143.244 35.4881 143.244 34.5464C143.244 33.3416 144.596 32.8793 145.766 32.8793C146.814 32.8793 147.305 33.105 147.941 33.4023C147.754 34.8437 146.484 35.8648 145.106 35.8648ZM158.608 27.6757L155.874 34.4234H155.793L152.966 27.6757H150.401L154.648 37.1053L152.225 42.3525H154.71L161.255 27.6757H158.608ZM137.167 37.6346H139.552V22.069H137.167V37.6346Z" fill="white"/>
<path d="M14.0895 9.66484C13.7149 10.0478 13.498 10.6439 13.498 11.416V38.9545C13.498 39.7265 13.7149 40.3227 14.0895 40.7056L14.182 40.7897L29.9876 25.3642V25L14.182 9.57456L14.0895 9.66484Z" fill="url(#paint0_linear_99_1069)"/>
<path d="M35.251 30.5086L29.9883 25.3642V25L35.2573 19.8556L35.3753 19.9225L41.6153 23.3889C43.3961 24.3727 43.3961 25.9915 41.6153 26.9815L35.3753 30.4417L35.251 30.5086Z" fill="url(#paint1_linear_99_1069)"/>
<path d="M35.3749 30.4417L29.9879 25.1821L14.0898 40.7056C14.6813 41.3127 15.6459 41.3858 16.7427 40.7788L35.3749 30.4417Z" fill="url(#paint2_linear_99_1069)"/>
<path d="M35.3749 19.9225L16.7427 9.58548C15.6459 8.98465 14.6813 9.0578 14.0898 9.66486L29.9879 25.1821L35.3749 19.9225Z" fill="url(#paint3_linear_99_1069)"/>
<defs>
<linearGradient id="paint0_linear_99_1069" x1="28.5842" y1="39.2413" x2="7.69207" y2="17.8429" gradientUnits="userSpaceOnUse">
<stop stop-color="#00A0FF"/>
<stop offset="0.0066" stop-color="#00A1FF"/>
<stop offset="0.2601" stop-color="#00BEFF"/>
<stop offset="0.5122" stop-color="#00D2FF"/>
<stop offset="0.7604" stop-color="#00DFFF"/>
<stop offset="1" stop-color="#00E3FF"/>
</linearGradient>
<linearGradient id="paint1_linear_99_1069" x1="43.9342" y1="25.1804" x2="13.0731" y2="25.1804" gradientUnits="userSpaceOnUse">
<stop stop-color="#FFE000"/>
<stop offset="0.4087" stop-color="#FFBD00"/>
<stop offset="0.7754" stop-color="#FFA500"/>
<stop offset="1" stop-color="#FF9C00"/>
</linearGradient>
<linearGradient id="paint2_linear_99_1069" x1="32.4456" y1="22.3229" x2="4.11416" y2="-6.69507" gradientUnits="userSpaceOnUse">
<stop stop-color="#FF3A44"/>
<stop offset="1" stop-color="#C31162"/>
</linearGradient>
<linearGradient id="paint3_linear_99_1069" x1="10.088" y1="49.8676" x2="22.7392" y2="36.9099" gradientUnits="userSpaceOnUse">
<stop stop-color="#32A071"/>
<stop offset="0.0685" stop-color="#2DA771"/>
<stop offset="0.4762" stop-color="#15CF74"/>
<stop offset="0.8009" stop-color="#06E775"/>
<stop offset="1" stop-color="#00F076"/>
</linearGradient>
</defs>
</svg>
