<svg width="175" height="53" viewBox="0 0 175 53" fill="none" xmlns="http://www.w3.org/2000/svg">
<path d="M174.459 48.0653C174.459 50.7198 172.264 52.8699 169.55 52.8699H8.87328C6.15967 52.8699 3.95703 50.7198 3.95703 48.0653V9.75062C3.95703 7.09746 6.15967 4.9398 8.87328 4.9398H169.548C172.264 4.9398 174.458 7.09746 174.458 9.75062L174.459 48.0653Z" fill="black"/>
<path d="M41.4791 28.6359C41.442 24.6224 44.8495 22.6699 45.0053 22.579C43.0755 19.8357 40.0844 19.4609 39.0333 19.431C36.5211 19.1733 34.0842 20.8967 32.8045 20.8967C31.4992 20.8967 29.5286 19.4559 27.4046 19.4983C24.6715 19.5394 22.1146 21.0822 20.7122 23.4781C17.8182 28.3631 19.9766 35.542 22.7493 39.4906C24.1363 41.4245 25.7571 43.5837 27.8785 43.5078C29.9539 43.4243 30.7291 42.2177 33.2336 42.2177C35.7152 42.2177 36.4432 43.5078 38.6067 43.4592C40.8341 43.4243 42.2364 41.5166 43.5749 39.5653C45.1777 37.3488 45.8214 35.1659 45.847 35.0538C45.7946 35.0364 41.5212 33.4462 41.4791 28.6359Z" fill="white"/>
<path d="M37.3921 16.8335C38.5084 15.4724 39.2721 13.6207 39.0601 11.7417C37.4445 11.8114 35.424 12.8312 34.2605 14.1624C33.2311 15.3354 32.3115 17.2581 32.5491 19.0662C34.3639 19.1982 36.2273 18.1733 37.3921 16.8335Z" fill="white"/>
<path d="M71.5131 43.2301H68.6126L67.0238 38.3624H61.5013L59.9879 43.2301H57.1641L62.6355 26.6584H66.0149L71.5131 43.2301ZM66.5449 36.3203L65.1081 31.993C64.9561 31.551 64.6713 30.51 64.2511 28.8712H64.2C64.0327 29.576 63.7632 30.617 63.3928 31.993L61.9816 36.3203H66.5449Z" fill="white"/>
<path d="M85.5836 37.1085C85.5836 39.1408 85.0204 40.7471 83.8939 41.9264C82.8849 42.9761 81.632 43.5004 80.1365 43.5004C78.5221 43.5004 77.3624 42.935 76.6562 41.8043H76.6051V48.099H73.8821V35.2145C73.8821 33.9369 73.8477 32.6257 73.7812 31.2808H76.1759L76.3279 33.1748H76.379C77.2871 31.7478 78.6652 31.0355 80.5145 31.0355C81.9603 31.0355 83.1672 31.5921 84.1327 32.7066C85.1008 33.8223 85.5836 35.2892 85.5836 37.1085ZM82.8096 37.2057C82.8096 36.0426 82.5414 35.0838 82.0024 34.3292C81.4136 33.5422 80.6231 33.1487 79.632 33.1487C78.9602 33.1487 78.3497 33.3678 77.8043 33.7999C77.2577 34.2358 76.9001 34.8048 76.7328 35.5096C76.6485 35.8384 76.6064 36.1074 76.6064 36.3191V38.3114C76.6064 39.1806 76.8797 39.9141 77.4263 40.513C77.9729 41.112 78.683 41.4108 79.5566 41.4108C80.5822 41.4108 81.3804 41.0248 81.9513 40.2553C82.5235 39.4845 82.8096 38.4683 82.8096 37.2057Z" fill="white"/>
<path d="M99.68 37.1085C99.68 39.1408 99.1167 40.7471 97.989 41.9264C96.9813 42.9761 95.7284 43.5004 94.2328 43.5004C92.6185 43.5004 91.4588 42.935 90.7538 41.8043H90.7027V48.099H87.9798V35.2145C87.9798 33.9369 87.9453 32.6257 87.8789 31.2808H90.2736L90.4256 33.1748H90.4767C91.3835 31.7478 92.7615 31.0355 94.6122 31.0355C96.0566 31.0355 97.2636 31.5921 98.2317 32.7066C99.1959 33.8223 99.68 35.2892 99.68 37.1085ZM96.906 37.2057C96.906 36.0426 96.6365 35.0838 96.0975 34.3292C95.5087 33.5422 94.7207 33.1487 93.7284 33.1487C93.0553 33.1487 92.4461 33.3678 91.8994 33.7999C91.3528 34.2358 90.9965 34.8048 90.8292 35.5096C90.7462 35.8384 90.7027 36.1074 90.7027 36.3191V38.3114C90.7027 39.1806 90.976 39.9141 91.5201 40.513C92.0667 41.1107 92.7769 41.4108 93.653 41.4108C94.6786 41.4108 95.4768 41.0248 96.0477 40.2553C96.6199 39.4845 96.906 38.4683 96.906 37.2057Z" fill="white"/>
<path d="M115.439 38.5829C115.439 39.9925 114.937 41.1394 113.929 42.0247C112.822 42.9923 111.28 43.4754 109.3 43.4754C107.471 43.4754 106.004 43.1318 104.895 42.4431L105.525 40.2303C106.721 40.9351 108.033 41.2888 109.462 41.2888C110.487 41.2888 111.285 41.0622 111.859 40.6114C112.43 40.1606 112.715 39.5554 112.715 38.8008C112.715 38.1284 112.48 37.5618 112.008 37.1023C111.54 36.6428 110.757 36.2157 109.663 35.8209C106.688 34.7388 105.201 33.1536 105.201 31.0691C105.201 29.7068 105.722 28.5898 106.766 27.7206C107.805 26.8502 109.192 26.4156 110.927 26.4156C112.473 26.4156 113.758 26.6784 114.784 27.2026L114.103 29.3668C113.145 28.8588 112.062 28.6048 110.85 28.6048C109.892 28.6048 109.144 28.8351 108.607 29.2934C108.154 29.7031 107.927 30.2024 107.927 30.7939C107.927 31.4489 108.186 31.9906 108.707 32.4164C109.16 32.8099 109.984 33.2358 111.179 33.6953C112.642 34.2694 113.716 34.9405 114.407 35.7101C115.095 36.4772 115.439 37.4373 115.439 38.5829Z" fill="white"/>
<path d="M124.442 33.2732H121.441V39.0747C121.441 40.5503 121.97 41.2875 123.03 41.2875C123.516 41.2875 123.92 41.2464 124.239 41.1643L124.315 43.1803C123.778 43.3758 123.072 43.4742 122.197 43.4742C121.122 43.4742 120.281 43.1542 119.675 42.5153C119.071 41.8753 118.767 40.8019 118.767 39.2939V33.2707H116.979V31.2783H118.767V29.0904L121.441 28.3034V31.2783H124.442V33.2732Z" fill="white"/>
<path d="M137.985 37.1571C137.985 38.9938 137.446 40.5018 136.37 41.681C135.243 42.8952 133.746 43.5003 131.88 43.5003C130.081 43.5003 128.65 42.9188 127.582 41.7558C126.514 40.5927 125.98 39.1246 125.98 37.3551C125.98 35.5034 126.53 33.9867 127.632 32.8074C128.731 31.627 130.216 31.0367 132.082 31.0367C133.88 31.0367 135.327 31.6182 136.419 32.7825C137.464 33.912 137.985 35.3702 137.985 37.1571ZM135.159 37.243C135.159 36.141 134.918 35.1958 134.429 34.4076C133.858 33.4537 133.042 32.978 131.984 32.978C130.89 32.978 130.058 33.455 129.488 34.4076C128.998 35.1971 128.757 36.1571 128.757 37.2928C128.757 38.3948 128.998 39.34 129.488 40.127C130.076 41.0808 130.899 41.5565 131.96 41.5565C133 41.5565 133.816 41.0709 134.405 40.1021C134.907 39.2989 135.159 38.3438 135.159 37.243Z" fill="white"/>
<path d="M146.836 33.6156C146.567 33.5671 146.279 33.5422 145.978 33.5422C145.02 33.5422 144.279 33.8946 143.758 34.6006C143.305 35.2232 143.078 36.0102 143.078 36.9604V43.2301H140.356L140.381 35.0439C140.381 33.6667 140.347 32.4127 140.279 31.282H142.651L142.751 33.5683H142.826C143.113 32.7826 143.567 32.15 144.187 31.6755C144.794 31.2484 145.449 31.0355 146.156 31.0355C146.407 31.0355 146.635 31.0529 146.836 31.0841V33.6156Z" fill="white"/>
<path d="M159.013 36.6901C159.013 37.1658 158.981 37.5668 158.913 37.8943H150.744C150.776 39.0747 151.171 39.9775 151.93 40.6002C152.618 41.1568 153.508 41.4357 154.601 41.4357C155.811 41.4357 156.914 41.2477 157.907 40.8704L158.333 42.7133C157.174 43.2065 155.805 43.4518 154.225 43.4518C152.324 43.4518 150.833 42.9064 149.747 41.8168C148.664 40.7272 148.121 39.264 148.121 37.4285C148.121 35.6267 148.626 34.1262 149.636 32.9295C150.693 31.6519 152.122 31.013 153.921 31.013C155.687 31.013 157.024 31.6519 157.932 32.9295C158.651 33.9443 159.013 35.1995 159.013 36.6901ZM156.416 36.0015C156.434 35.2145 156.257 34.5346 155.888 33.9605C155.416 33.2221 154.692 32.8535 153.718 32.8535C152.827 32.8535 152.103 33.2134 151.55 33.9356C151.097 34.5097 150.827 35.1983 150.744 36.0002H156.416V36.0015Z" fill="white"/>
<path d="M65.6448 16.4637C65.6448 17.9293 65.1939 19.0326 64.2935 19.7735C63.4595 20.4572 62.2743 20.7996 60.7392 20.7996C59.978 20.7996 59.3266 20.7672 58.7812 20.7025V12.6943C59.4926 12.5822 60.2589 12.525 61.0865 12.525C62.5489 12.525 63.6511 12.835 64.3944 13.4552C65.2271 14.1562 65.6448 15.1587 65.6448 16.4637ZM64.2335 16.4998C64.2335 15.5497 63.9755 14.8212 63.4595 14.3131C62.9436 13.8063 62.19 13.5523 61.1977 13.5523C60.7762 13.5523 60.4173 13.5797 60.1197 13.637V19.725C60.2845 19.7499 60.5859 19.7611 61.024 19.7611C62.0483 19.7611 62.8388 19.4834 63.3957 18.928C63.9525 18.3726 64.2335 17.5632 64.2335 16.4998Z" fill="white"/>
<path d="M73.1272 17.7438C73.1272 18.6466 72.8628 19.3862 72.334 19.9665C71.7798 20.563 71.0454 20.8606 70.1284 20.8606C69.2446 20.8606 68.5408 20.5754 68.0159 20.0026C67.4923 19.4311 67.2305 18.7101 67.2305 17.8409C67.2305 16.9319 67.4999 16.186 68.0415 15.6069C68.583 15.0279 69.311 14.7377 70.228 14.7377C71.1118 14.7377 71.8219 15.0229 72.3596 15.5945C72.8705 16.1499 73.1272 16.8671 73.1272 17.7438ZM71.7389 17.7861C71.7389 17.2444 71.6188 16.7799 71.38 16.3927C71.099 15.9245 70.6993 15.6904 70.1795 15.6904C69.6418 15.6904 69.2331 15.9245 68.9521 16.3927C68.712 16.7799 68.5932 17.2519 68.5932 17.8098C68.5932 18.3514 68.7133 18.8159 68.9521 19.2032C69.242 19.6714 69.6456 19.9055 70.1667 19.9055C70.6776 19.9055 71.0786 19.6677 71.3672 19.1907C71.615 18.796 71.7389 18.3278 71.7389 17.7861Z" fill="white"/>
<path d="M83.1606 14.8573L81.2767 20.7274H80.0507L79.2703 18.1784C79.0724 17.542 78.9114 16.9095 78.7863 16.2818H78.762C78.6458 16.9269 78.4849 17.5582 78.278 18.1784L77.4491 20.7274H76.2089L74.4375 14.8573H75.813L76.4937 17.6479C76.6585 18.3079 76.7939 18.9367 76.9024 19.5319H76.9267C77.0263 19.0413 77.1911 18.4162 77.4235 17.6603L78.278 14.8585H79.3687L80.1873 17.6006C80.3853 18.2693 80.5462 18.913 80.6701 19.5332H80.7071C80.7978 18.9292 80.9345 18.2854 81.1158 17.6006L81.8464 14.8585H83.1606V14.8573Z" fill="white"/>
<path d="M90.1015 20.7274H88.763V17.3652C88.763 16.3292 88.3594 15.8112 87.5497 15.8112C87.1525 15.8112 86.8319 15.9531 86.5829 16.2383C86.3364 16.5234 86.2112 16.8597 86.2112 17.2444V20.7261H84.8727V16.5346C84.8727 16.0191 84.8561 15.46 84.8242 14.8548H86.0005L86.0631 15.7726H86.1001C86.2559 15.4874 86.4884 15.252 86.7936 15.064C87.1563 14.8449 87.5625 14.734 88.0069 14.734C88.5689 14.734 89.0363 14.9108 89.408 15.2657C89.8703 15.7003 90.1015 16.3491 90.1015 17.2108V20.7274Z" fill="white"/>
<path d="M93.7903 20.7274H92.4531V12.1638H93.7903V20.7274Z" fill="white"/>
<path d="M101.672 17.7438C101.672 18.6466 101.408 19.3862 100.879 19.9665C100.325 20.563 99.589 20.8606 98.6733 20.8606C97.7882 20.8606 97.0845 20.5754 96.5608 20.0026C96.0372 19.4311 95.7754 18.7101 95.7754 17.8409C95.7754 16.9319 96.0449 16.186 96.5864 15.6069C97.1279 15.0279 97.8559 14.7377 98.7716 14.7377C99.6567 14.7377 100.366 15.0229 100.905 15.5945C101.415 16.1499 101.672 16.8671 101.672 17.7438ZM100.283 17.7861C100.283 17.2444 100.162 16.7799 99.9236 16.3927C99.6439 15.9245 99.2429 15.6904 98.7244 15.6904C98.1854 15.6904 97.7767 15.9245 97.497 16.3927C97.2569 16.7799 97.1381 17.2519 97.1381 17.8098C97.1381 18.3514 97.2582 18.8159 97.497 19.2032C97.7869 19.6714 98.1905 19.9055 98.7116 19.9055C99.2225 19.9055 99.6222 19.6677 99.9109 19.1907C100.16 18.796 100.283 18.3278 100.283 17.7861Z" fill="white"/>
<path d="M108.15 20.7274H106.948L106.848 20.0512H106.811C106.4 20.5904 105.814 20.8606 105.053 20.8606C104.484 20.8606 104.024 20.6825 103.678 20.3289C103.364 20.0076 103.207 19.6079 103.207 19.1335C103.207 18.4162 103.514 17.8695 104.13 17.491C104.746 17.1124 105.612 16.9269 106.727 16.9356V16.826C106.727 16.0527 106.311 15.6667 105.477 15.6667C104.883 15.6667 104.359 15.8124 103.907 16.1013L103.635 15.2446C104.194 14.9071 104.885 14.7377 105.7 14.7377C107.274 14.7377 108.063 15.5472 108.063 17.166V19.3277C108.063 19.9142 108.092 20.3812 108.15 20.7274ZM106.76 18.7101V17.8048C105.284 17.7799 104.546 18.1746 104.546 18.9878C104.546 19.2941 104.63 19.5232 104.802 19.6764C104.975 19.8295 105.194 19.9055 105.456 19.9055C105.75 19.9055 106.024 19.8146 106.275 19.634C106.526 19.4522 106.681 19.2219 106.738 18.9392C106.752 18.8757 106.76 18.7985 106.76 18.7101Z" fill="white"/>
<path d="M115.755 20.7274H114.567L114.505 19.7847H114.468C114.088 20.502 113.442 20.8606 112.534 20.8606C111.809 20.8606 111.205 20.5829 110.726 20.0275C110.247 19.4722 110.008 18.7512 110.008 17.8658C110.008 16.9157 110.267 16.1461 110.788 15.5584C111.293 15.0105 111.911 14.7365 112.646 14.7365C113.455 14.7365 114.021 15.0017 114.343 15.5335H114.368V12.1638H115.708V19.1459C115.708 19.7175 115.723 20.2442 115.755 20.7274ZM114.368 18.2518V17.2731C114.368 17.1037 114.355 16.9667 114.331 16.8621C114.256 16.5483 114.093 16.2843 113.847 16.0714C113.598 15.8585 113.298 15.7514 112.952 15.7514C112.452 15.7514 112.061 15.9444 111.774 16.3317C111.489 16.7189 111.345 17.2133 111.345 17.8172C111.345 18.3975 111.482 18.8682 111.756 19.2306C112.046 19.6166 112.437 19.8096 112.926 19.8096C113.365 19.8096 113.717 19.649 113.984 19.3265C114.242 19.0289 114.368 18.6702 114.368 18.2518Z" fill="white"/>
<path d="M127.201 17.7438C127.201 18.6466 126.937 19.3862 126.408 19.9665C125.854 20.563 125.121 20.8606 124.203 20.8606C123.32 20.8606 122.616 20.5754 122.09 20.0026C121.567 19.4311 121.305 18.7101 121.305 17.8409C121.305 16.9319 121.574 16.186 122.116 15.6069C122.657 15.0279 123.385 14.7377 124.303 14.7377C125.186 14.7377 125.897 15.0229 126.434 15.5945C126.945 16.1499 127.201 16.8671 127.201 17.7438ZM125.814 17.7861C125.814 17.2444 125.694 16.7799 125.455 16.3927C125.173 15.9245 124.775 15.6904 124.254 15.6904C123.717 15.6904 123.309 15.9245 123.026 16.3927C122.786 16.7799 122.667 17.2519 122.667 17.8098C122.667 18.3514 122.787 18.8159 123.026 19.2032C123.316 19.6714 123.72 19.9055 124.241 19.9055C124.752 19.9055 125.154 19.6677 125.443 19.1907C125.689 18.796 125.814 18.3278 125.814 17.7861Z" fill="white"/>
<path d="M134.399 20.7274H133.062V17.3652C133.062 16.3292 132.658 15.8112 131.847 15.8112C131.45 15.8112 131.129 15.9531 130.882 16.2383C130.634 16.5234 130.51 16.8597 130.51 17.2444V20.7261H129.17V16.5346C129.17 16.0191 129.155 15.46 129.123 14.8548H130.298L130.361 15.7726H130.398C130.555 15.4874 130.787 15.252 131.091 15.064C131.455 14.8449 131.86 14.734 132.306 14.734C132.866 14.734 133.334 14.9108 133.706 15.2657C134.169 15.7003 134.399 16.3491 134.399 17.2108V20.7274Z" fill="white"/>
<path d="M143.407 15.8348H141.933V18.6864C141.933 19.4111 142.195 19.7735 142.713 19.7735C142.954 19.7735 143.153 19.7536 143.31 19.7125L143.344 20.7025C143.08 20.7996 142.733 20.8482 142.305 20.8482C141.776 20.8482 141.365 20.6913 141.067 20.3775C140.768 20.0637 140.62 19.5357 140.62 18.7947V15.8348H139.74V14.8573H140.62V13.7814L141.932 13.3954V14.856H143.406V15.8348H143.407Z" fill="white"/>
<path d="M150.492 20.7274H149.153V17.3901C149.153 16.3379 148.749 15.8111 147.941 15.8111C147.32 15.8111 146.896 16.1162 146.663 16.7264C146.624 16.8547 146.601 17.0116 146.601 17.1959V20.7261H145.264V12.1638H146.601V15.7016H146.626C147.048 15.0578 147.652 14.7365 148.435 14.7365C148.989 14.7365 149.448 14.9133 149.812 15.2682C150.265 15.7103 150.492 16.3678 150.492 17.237V20.7274Z" fill="white"/>
<path d="M157.802 17.5146C157.802 17.7487 157.784 17.9455 157.752 18.1061H153.738C153.756 18.6864 153.947 19.1285 154.319 19.4348C154.659 19.7088 155.097 19.8457 155.633 19.8457C156.227 19.8457 156.769 19.7536 157.256 19.568L157.466 20.4746C156.895 20.7162 156.223 20.8369 155.445 20.8369C154.513 20.8369 153.779 20.5692 153.247 20.0338C152.714 19.4983 152.449 18.7798 152.449 17.8783C152.449 16.9929 152.696 16.2557 153.193 15.6679C153.711 15.0403 154.412 14.7265 155.297 14.7265C156.163 14.7265 156.821 15.0403 157.265 15.6679C157.624 16.166 157.802 16.7824 157.802 17.5146ZM156.525 17.1772C156.535 16.7899 156.447 16.4562 156.265 16.1748C156.033 15.8124 155.679 15.6306 155.2 15.6306C154.763 15.6306 154.407 15.8074 154.135 16.1623C153.913 16.445 153.781 16.7824 153.738 17.1772H156.525Z" fill="white"/>
<path d="M64 5.00001L4 48V30.359L40 5.00001H64Z" fill="#F9F9F8"/>
<path d="M10.6465 35.8143C10.9978 36.4206 11.1079 37.0241 10.9768 37.625C10.8471 38.2185 10.4898 38.7158 9.90487 39.1171C9.24079 39.5727 8.55477 39.7135 7.84682 39.5394C7.13886 39.3654 6.52995 38.9067 6.02006 38.1635C5.71232 37.7149 5.519 37.2493 5.4401 36.7666C5.35819 36.2795 5.41181 35.8061 5.60098 35.3465C5.78713 34.8825 6.1111 34.4921 6.57288 34.1753C7.06985 33.8343 7.59808 33.6757 8.15758 33.6993C8.71406 33.7186 9.2077 33.962 9.63847 34.4297L8.82046 34.9909C8.57019 34.7486 8.2874 34.6192 7.97209 34.6027C7.65375 34.5818 7.34286 34.6754 7.0394 34.8836C6.72715 35.0978 6.52141 35.3683 6.4222 35.6951C6.32739 36.0188 6.3228 36.3421 6.40845 36.6649C6.49549 36.9804 6.64309 37.2898 6.85127 37.5933C7.00816 37.822 7.18238 38.0194 7.37394 38.1855C7.5655 38.3516 7.77289 38.4842 7.9961 38.5833C8.2163 38.678 8.45126 38.7141 8.70096 38.6915C8.95507 38.6659 9.20306 38.5702 9.44495 38.4043C10.1442 37.9245 10.2699 37.2498 9.82192 36.38L10.6465 35.8143ZM11.6843 32.5799C12.2033 32.2239 12.7283 32.103 13.2594 32.2173C13.7905 32.3315 14.2447 32.6635 14.6218 33.2133C15.002 33.7674 15.1497 34.3128 15.0651 34.8494C14.9849 35.3831 14.6832 35.8294 14.1598 36.1884C13.6277 36.5535 13.0938 36.6804 12.5583 36.5692C12.0228 36.4579 11.565 36.1252 11.1848 35.5711C10.8077 35.0214 10.6636 34.4767 10.7526 33.937C10.846 33.3943 11.1566 32.942 11.6843 32.5799ZM12.9995 33.0262C12.6845 32.9254 12.3775 32.9775 12.0784 33.1827C11.7794 33.3878 11.618 33.657 11.5943 33.9902C11.5706 34.3233 11.687 34.6768 11.9435 35.0507C12.206 35.4333 12.4969 35.6735 12.8162 35.7713C13.1356 35.8692 13.447 35.814 13.7504 35.6058C14.0451 35.4037 14.2021 35.1375 14.2214 34.8074C14.242 34.4698 14.1211 34.1097 13.8586 33.7271C13.6022 33.3533 13.3158 33.1197 12.9995 33.0262ZM14.8051 30.5845L15.1354 31.0661C15.1544 30.4904 15.3794 30.0547 15.8104 29.759C16.0347 29.6052 16.2629 29.523 16.495 29.5125C16.7315 29.499 16.9527 29.5575 17.1586 29.6879C17.1658 29.1138 17.4003 28.6684 17.862 28.3516C18.1831 28.1313 18.5155 28.0456 18.8594 28.0942C19.2002 28.1385 19.4868 28.33 19.7191 28.6686L21.3755 31.0831L20.6234 31.599L19.1888 29.5078C19.0229 29.2659 18.8514 29.1055 18.6743 29.0265C18.4972 28.9474 18.2899 28.9894 18.0524 29.1523C17.8105 29.3183 17.6786 29.5219 17.6567 29.7634C17.6317 30.0004 17.7128 30.2552 17.8998 30.5279L19.2711 32.5268L18.519 33.0427L17.0573 30.9119C16.8913 30.67 16.7287 30.5131 16.5695 30.4413C16.4146 30.3664 16.2229 30.4074 15.9942 30.5643C15.7391 30.7393 15.6029 30.9556 15.5856 31.2132C15.5653 31.4665 15.6487 31.7294 15.8358 32.0021L17.1799 33.9614L16.4278 34.4773L14.0926 31.0733L14.8051 30.5845ZM19.6973 25.2978L20.2042 26.0366L19.4521 26.5525L18.9453 25.8137L19.6973 25.2978ZM20.5979 26.6105L22.9331 30.0145L22.1811 30.5304L19.8459 27.1265L20.5979 26.6105ZM22.1364 25.5551L22.4803 26.0565C22.4815 25.4736 22.7217 25.0177 23.2011 24.6889C23.5881 24.4234 23.9486 24.3313 24.2825 24.4127C24.6208 24.491 24.9258 24.7281 25.1973 25.1239L26.7541 27.3932L26.0021 27.9092L24.6444 25.9301C24.5508 25.7938 24.4673 25.6861 24.3938 25.6072C24.3172 25.5239 24.2253 25.4512 24.1179 25.389C24.015 25.3238 23.9023 25.3009 23.7797 25.3203C23.6542 25.3352 23.5189 25.3925 23.3737 25.4921C22.8196 25.8722 22.7794 26.4075 23.253 27.098L24.5112 28.932L23.7591 29.4479L21.4239 26.0439L22.1364 25.5551ZM28.3257 21.3091L30.3894 24.3173C30.7906 24.9022 30.9625 25.4214 30.9049 25.8748C30.8517 26.3253 30.5282 26.7541 29.9345 27.1614C29.0022 27.801 28.2574 27.8043 27.7001 27.1711L28.4522 26.6552C28.7548 26.9456 29.1349 26.9339 29.5923 26.6201C29.9045 26.4059 30.0767 26.1713 30.1088 25.9165C30.1453 25.6586 30.0429 25.3537 29.8016 25.0019L29.5255 24.5995C29.5417 25.1511 29.3123 25.5898 28.8373 25.9156C28.3843 26.2264 27.9196 26.322 27.4432 26.2026C26.9681 26.0758 26.5526 25.7529 26.1965 25.2339C25.8315 24.7018 25.6774 24.1802 25.7342 23.669C25.788 23.1535 26.0436 22.7389 26.501 22.4251C26.7429 22.2591 26.9768 22.1665 27.2029 22.1473C27.426 22.1236 27.6758 22.1624 27.9523 22.2638L27.6264 21.7888L28.3257 21.3091ZM27.0493 22.9415C26.7678 23.1346 26.6151 23.3881 26.5912 23.702C26.5716 24.0129 26.6855 24.3487 26.9329 24.7094C27.1683 25.0524 27.4367 25.2692 27.7382 25.3599C28.0441 25.4476 28.3334 25.3979 28.6061 25.2108C28.8875 25.0177 29.0387 24.762 29.0596 24.4437C29.0776 24.1209 28.9643 23.7815 28.7199 23.4252C28.4816 23.0778 28.2147 22.8631 27.9192 22.7813C27.6251 22.692 27.3351 22.7454 27.0493 22.9415ZM34.4918 17.2149L33.7068 17.7534C33.2812 17.2368 32.7518 17.1958 32.1185 17.6303C31.8371 17.8234 31.6579 18.0336 31.581 18.2609C31.5012 18.4839 31.5306 18.6965 31.6694 18.8988C31.7991 19.0879 31.9453 19.1785 32.1079 19.1704C32.2749 19.1593 32.5933 19.067 33.0629 18.8936C33.1895 18.852 33.286 18.8182 33.3522 18.7922C33.9661 18.5651 34.4038 18.4394 34.6653 18.4152C35.237 18.3529 35.6857 18.5592 36.0116 19.0342C36.1534 19.2409 36.2464 19.452 36.2907 19.6674C36.335 19.8828 36.337 20.0884 36.2967 20.2842C36.2533 20.4756 36.176 20.6645 36.0645 20.8509C35.9531 21.0373 35.82 21.2062 35.6652 21.3577C35.5134 21.5135 35.343 21.6563 35.1538 21.7861C34.5645 22.1904 33.9908 22.377 33.4327 22.3459C32.8746 22.3149 32.4084 22.0267 32.0343 21.4813L32.8457 20.9247C33.0811 21.2677 33.3682 21.4459 33.7072 21.4591C34.0431 21.468 34.3914 21.3487 34.752 21.1013C35.0686 20.8841 35.2712 20.6513 35.3596 20.4031C35.4494 20.1475 35.4144 19.9031 35.2544 19.67C35.1519 19.5205 35.0205 19.4327 34.8604 19.4068C34.7017 19.3734 34.5538 19.3746 34.4167 19.4104C34.2796 19.4463 34.0505 19.5226 33.7296 19.6392C33.6928 19.6516 33.6641 19.6616 33.6434 19.6692C32.9559 19.921 32.4866 20.0618 32.2356 20.0918C31.7172 20.1564 31.303 19.991 30.993 19.5957C30.9719 19.5649 30.9507 19.5341 30.9296 19.5033C30.643 19.0855 30.5713 18.6464 30.7146 18.1859C30.8593 17.718 31.1955 17.303 31.7233 16.941C32.2334 16.591 32.732 16.4268 33.219 16.4485C33.706 16.4701 34.1303 16.7256 34.4918 17.2149ZM36.7383 15.3923C37.2573 15.0363 37.7823 14.9155 38.3134 15.0297C38.8445 15.144 39.2987 15.476 39.6758 16.0257C40.056 16.5798 40.2037 17.1252 40.1191 17.6619C40.0389 18.1955 39.7372 18.6418 39.2138 19.0008C38.6817 19.3659 38.1478 19.4928 37.6123 19.3816C37.0768 19.2704 36.619 18.9377 36.2388 18.3835C35.8617 17.8338 35.7176 17.2891 35.8066 16.7494C35.9 16.2068 36.2106 15.7544 36.7383 15.3923ZM38.0534 15.8387C37.7385 15.7378 37.4315 15.79 37.1324 15.9951C36.8334 16.2003 36.672 16.4694 36.6483 16.8026C36.6246 17.1358 36.741 17.4893 36.9975 17.8631C37.2599 18.2457 37.5509 18.4859 37.8702 18.5838C38.1896 18.6816 38.501 18.6264 38.8044 18.4182C39.0991 18.2161 39.2561 17.95 39.2754 17.6198C39.296 17.2822 39.1751 16.9222 38.9126 16.5395C38.6562 16.1657 38.3698 15.9321 38.0534 15.8387ZM40.6488 12.7097C41.1677 12.3537 41.6928 12.2328 42.2239 12.347C42.755 12.4613 43.2091 12.7933 43.5863 13.343C43.9664 13.8972 44.1142 14.4426 44.0296 14.9792C43.9494 15.5128 43.6476 15.9592 43.1243 16.3182C42.5921 16.6833 42.0583 16.8102 41.5228 16.6989C40.9873 16.5877 40.5294 16.255 40.1493 15.7009C39.7721 15.1511 39.6281 14.6064 39.7171 14.0668C39.8105 13.5241 40.121 13.0717 40.6488 12.7097ZM41.9639 13.156C41.6489 13.0551 41.3419 13.1073 41.0429 13.3125C40.7438 13.5176 40.5825 13.7868 40.5588 14.1199C40.5351 14.4531 40.6515 14.8066 40.9079 15.1804C41.1704 15.563 41.4613 15.8033 41.7807 15.9011C42.1 15.9989 42.4114 15.9438 42.7149 15.7356C43.0096 15.5334 43.1665 15.2673 43.1858 14.9372C43.2065 14.5996 43.0856 14.2395 42.8231 13.8569C42.5666 13.4831 42.2802 13.2494 41.9639 13.156ZM43.7695 10.7143L44.1135 11.2157C44.1146 10.6328 44.3549 10.1769 44.8342 9.84808C45.2212 9.58258 45.5817 9.49051 45.9156 9.57187C46.254 9.65022 46.5589 9.88731 46.8304 10.2831L48.3873 12.5524L47.6352 13.0684L46.2775 11.0893C46.184 10.953 46.1005 10.8453 46.0269 10.7664C45.9504 10.6831 45.8584 10.6104 45.7511 10.5482C45.6482 10.483 45.5354 10.4601 45.4129 10.4795C45.2874 10.4944 45.152 10.5517 45.0069 10.6513C44.4527 11.0314 44.4125 11.5667 44.8862 12.2572L46.1443 14.0912L45.3923 14.6071L43.0571 11.2031L43.7695 10.7143ZM46.8751 6.68234L47.7983 8.02811L48.9946 10.2246L48.6054 10.4916L46.998 8.58683L46.0702 7.23447L46.8751 6.68234ZM49.5489 10.5234L50.1237 11.3612L49.2661 11.9496L48.6913 11.1117L49.5489 10.5234Z" fill="black"/>
</svg>
