<svg width="77" height="88" viewBox="0 0 77 88" fill="none" xmlns="http://www.w3.org/2000/svg">
<path fill-rule="evenodd" clip-rule="evenodd" d="M72.0103 30.9912C72.3381 27.7755 72.6907 24.5971 72.9246 21.3735C72.9775 20.6801 72.4608 20.0807 71.7718 20.0304C71.0784 19.9775 70.4764 20.4985 70.4261 21.1875C70.191 24.3931 69.8423 27.5447 69.5158 30.738C69.4474 31.4282 69.9497 32.0427 70.633 32.1129C71.3232 32.1813 71.9419 31.6814 72.0103 30.9912Z" fill="black"/>
<path fill-rule="evenodd" clip-rule="evenodd" d="M47.6141 41.9226C41.725 33.5772 35.4178 25.5345 29.3546 17.3201C28.9409 16.7628 28.157 16.6461 27.6022 17.0554C27.0449 17.4691 26.9239 18.2504 27.3351 18.812C33.3903 27.0102 39.6894 35.0365 45.5637 43.3676C45.9655 43.9355 46.7461 44.0679 47.3115 43.6704C47.8793 43.2686 48.0115 42.488 47.6141 41.9226Z" fill="black"/>
<path fill-rule="evenodd" clip-rule="evenodd" d="M27.1571 72.5413C19.0892 69.4642 10.9226 66.6081 2.88926 63.441C2.24593 63.1912 1.51932 63.507 1.26516 64.1478C1.00849 64.793 1.32867 65.5221 1.9695 65.7763C10.014 68.9441 18.1893 71.8052 26.2684 74.883C26.9143 75.1285 27.6391 74.8058 27.8846 74.16C28.1326 73.5098 27.8073 72.7893 27.1571 72.5413Z" fill="black"/>
</svg>
